<svg width="121" height="148" viewBox="0 0 121 148" fill="none" xmlns="http://www.w3.org/2000/svg">
<g opacity="0.5">
<circle cx="54" cy="3" r="3" transform="rotate(90 54 3)" fill="#EE9591"/>
<circle cx="41" cy="3" r="3" transform="rotate(90 41 3)" fill="#EE9591"/>
<circle cx="28" cy="3" r="3" transform="rotate(90 28 3)" fill="#EE9591"/>
<circle cx="15" cy="3" r="3" transform="rotate(90 15 3)" fill="#EE9591"/>
<circle cx="3" cy="3" r="3" transform="rotate(90 3 3)" fill="#EE9591"/>
<circle cx="54" cy="16" r="3" transform="rotate(90 54 16)" fill="#EE9591"/>
<circle cx="41" cy="16" r="3" transform="rotate(90 41 16)" fill="#EE9591"/>
<circle cx="28" cy="16" r="3" transform="rotate(90 28 16)" fill="#EE9591"/>
<circle cx="15" cy="16" r="3" transform="rotate(90 15 16)" fill="#EE9591"/>
<circle cx="3" cy="16" r="3" transform="rotate(90 3 16)" fill="#EE9591"/>
<circle cx="54" cy="29" r="3" transform="rotate(90 54 29)" fill="#EE9591"/>
<circle cx="41" cy="29" r="3" transform="rotate(90 41 29)" fill="#EE9591"/>
<circle cx="28" cy="29" r="3" transform="rotate(90 28 29)" fill="#EE9591"/>
<circle cx="15" cy="29" r="3" transform="rotate(90 15 29)" fill="#EE9591"/>
<circle cx="3" cy="29" r="3" transform="rotate(90 3 29)" fill="#EE9591"/>
<circle cx="54" cy="42" r="3" transform="rotate(90 54 42)" fill="#EE9591"/>
<circle cx="41" cy="42" r="3" transform="rotate(90 41 42)" fill="#EE9591"/>
<circle cx="28" cy="42" r="3" transform="rotate(90 28 42)" fill="#EE9591"/>
<circle cx="15" cy="42" r="3" transform="rotate(90 15 42)" fill="#EE9591"/>
<circle cx="3" cy="42" r="3" transform="rotate(90 3 42)" fill="#EE9591"/>
<circle cx="118" cy="54" r="3" transform="rotate(90 118 54)" fill="#EE9591"/>
<circle cx="105" cy="54" r="3" transform="rotate(90 105 54)" fill="#EE9591"/>
<circle cx="93" cy="54" r="3" transform="rotate(90 93 54)" fill="#EE9591"/>
<circle cx="80" cy="54" r="3" transform="rotate(90 80 54)" fill="#EE9591"/>
<circle cx="67" cy="54" r="3" transform="rotate(90 67 54)" fill="#EE9591"/>
<circle cx="54" cy="54" r="3" transform="rotate(90 54 54)" fill="#EE9591"/>
<circle cx="41" cy="54" r="3" transform="rotate(90 41 54)" fill="#EE9591"/>
<circle cx="28" cy="54" r="3" transform="rotate(90 28 54)" fill="#EE9591"/>
<circle cx="15" cy="54" r="3" transform="rotate(90 15 54)" fill="#EE9591"/>
<circle cx="3" cy="54" r="3" transform="rotate(90 3 54)" fill="#EE9591"/>
<circle cx="118" cy="67" r="3" transform="rotate(90 118 67)" fill="#EE9591"/>
<circle cx="105" cy="67" r="3" transform="rotate(90 105 67)" fill="#EE9591"/>
<circle cx="93" cy="67" r="3" transform="rotate(90 93 67)" fill="#EE9591"/>
<circle cx="80" cy="67" r="3" transform="rotate(90 80 67)" fill="#EE9591"/>
<circle cx="67" cy="67" r="3" transform="rotate(90 67 67)" fill="#EE9591"/>
<circle cx="54" cy="67" r="3" transform="rotate(90 54 67)" fill="#EE9591"/>
<circle cx="41" cy="67" r="3" transform="rotate(90 41 67)" fill="#EE9591"/>
<circle cx="28" cy="67" r="3" transform="rotate(90 28 67)" fill="#EE9591"/>
<circle cx="15" cy="67" r="3" transform="rotate(90 15 67)" fill="#EE9591"/>
<circle cx="3" cy="67" r="3" transform="rotate(90 3 67)" fill="#EE9591"/>
<circle cx="118" cy="80" r="3" transform="rotate(90 118 80)" fill="#EE9591"/>
<circle cx="118" cy="119" r="3" transform="rotate(90 118 119)" fill="#EE9591"/>
<circle cx="105" cy="80" r="3" transform="rotate(90 105 80)" fill="#EE9591"/>
<circle cx="105" cy="119" r="3" transform="rotate(90 105 119)" fill="#EE9591"/>
<circle cx="93" cy="80" r="3" transform="rotate(90 93 80)" fill="#EE9591"/>
<circle cx="93" cy="119" r="3" transform="rotate(90 93 119)" fill="#EE9591"/>
<circle cx="80" cy="80" r="3" transform="rotate(90 80 80)" fill="#EE9591"/>
<circle cx="80" cy="119" r="3" transform="rotate(90 80 119)" fill="#EE9591"/>
<circle cx="67" cy="80" r="3" transform="rotate(90 67 80)" fill="#EE9591"/>
<circle cx="67" cy="119" r="3" transform="rotate(90 67 119)" fill="#EE9591"/>
<circle cx="54" cy="80" r="3" transform="rotate(90 54 80)" fill="#EE9591"/>
<circle cx="54" cy="119" r="3" transform="rotate(90 54 119)" fill="#EE9591"/>
<circle cx="41" cy="80" r="3" transform="rotate(90 41 80)" fill="#EE9591"/>
<circle cx="41" cy="119" r="3" transform="rotate(90 41 119)" fill="#EE9591"/>
<circle cx="28" cy="80" r="3" transform="rotate(90 28 80)" fill="#EE9591"/>
<circle cx="28" cy="119" r="3" transform="rotate(90 28 119)" fill="#EE9591"/>
<circle cx="15" cy="80" r="3" transform="rotate(90 15 80)" fill="#EE9591"/>
<circle cx="15" cy="119" r="3" transform="rotate(90 15 119)" fill="#EE9591"/>
<circle cx="3" cy="80" r="3" transform="rotate(90 3 80)" fill="#EE9591"/>
<circle cx="3" cy="119" r="3" transform="rotate(90 3 119)" fill="#EE9591"/>
<circle cx="118" cy="93" r="3" transform="rotate(90 118 93)" fill="#EE9591"/>
<circle cx="118" cy="132" r="3" transform="rotate(90 118 132)" fill="#EE9591"/>
<circle cx="105" cy="93" r="3" transform="rotate(90 105 93)" fill="#EE9591"/>
<circle cx="105" cy="132" r="3" transform="rotate(90 105 132)" fill="#EE9591"/>
<circle cx="93" cy="93" r="3" transform="rotate(90 93 93)" fill="#EE9591"/>
<circle cx="93" cy="132" r="3" transform="rotate(90 93 132)" fill="#EE9591"/>
<circle cx="80" cy="93" r="3" transform="rotate(90 80 93)" fill="#EE9591"/>
<circle cx="80" cy="132" r="3" transform="rotate(90 80 132)" fill="#EE9591"/>
<circle cx="67" cy="93" r="3" transform="rotate(90 67 93)" fill="#EE9591"/>
<circle cx="67" cy="132" r="3" transform="rotate(90 67 132)" fill="#EE9591"/>
<circle cx="54" cy="93" r="3" transform="rotate(90 54 93)" fill="#EE9591"/>
<circle cx="54" cy="132" r="3" transform="rotate(90 54 132)" fill="#EE9591"/>
<circle cx="41" cy="93" r="3" transform="rotate(90 41 93)" fill="#EE9591"/>
<circle cx="41" cy="132" r="3" transform="rotate(90 41 132)" fill="#EE9591"/>
<circle cx="28" cy="93" r="3" transform="rotate(90 28 93)" fill="#EE9591"/>
<circle cx="28" cy="132" r="3" transform="rotate(90 28 132)" fill="#EE9591"/>
<circle cx="15" cy="93" r="3" transform="rotate(90 15 93)" fill="#EE9591"/>
<circle cx="15" cy="132" r="3" transform="rotate(90 15 132)" fill="#EE9591"/>
<circle cx="3" cy="93" r="3" transform="rotate(90 3 93)" fill="#EE9591"/>
<circle cx="3" cy="132" r="3" transform="rotate(90 3 132)" fill="#EE9591"/>
<circle cx="118" cy="106" r="3" transform="rotate(90 118 106)" fill="#EE9591"/>
<circle cx="118" cy="145" r="3" transform="rotate(90 118 145)" fill="#EE9591"/>
<circle cx="105" cy="106" r="3" transform="rotate(90 105 106)" fill="#EE9591"/>
<circle cx="105" cy="145" r="3" transform="rotate(90 105 145)" fill="#EE9591"/>
<circle cx="93" cy="106" r="3" transform="rotate(90 93 106)" fill="#EE9591"/>
<circle cx="93" cy="145" r="3" transform="rotate(90 93 145)" fill="#EE9591"/>
<circle cx="80" cy="106" r="3" transform="rotate(90 80 106)" fill="#EE9591"/>
<circle cx="80" cy="145" r="3" transform="rotate(90 80 145)" fill="#EE9591"/>
<circle cx="67" cy="106" r="3" transform="rotate(90 67 106)" fill="#EE9591"/>
<circle cx="67" cy="145" r="3" transform="rotate(90 67 145)" fill="#EE9591"/>
<circle cx="54" cy="106" r="3" transform="rotate(90 54 106)" fill="#EE9591"/>
<circle cx="54" cy="145" r="3" transform="rotate(90 54 145)" fill="#EE9591"/>
<circle cx="41" cy="106" r="3" transform="rotate(90 41 106)" fill="#EE9591"/>
<circle cx="41" cy="145" r="3" transform="rotate(90 41 145)" fill="#EE9591"/>
<circle cx="28" cy="106" r="3" transform="rotate(90 28 106)" fill="#EE9591"/>
<circle cx="28" cy="145" r="3" transform="rotate(90 28 145)" fill="#EE9591"/>
<circle cx="15" cy="106" r="3" transform="rotate(90 15 106)" fill="#EE9591"/>
<circle cx="15" cy="145" r="3" transform="rotate(90 15 145)" fill="#EE9591"/>
<circle cx="3" cy="106" r="3" transform="rotate(90 3 106)" fill="#EE9591"/>
<circle cx="3" cy="145" r="3" transform="rotate(90 3 145)" fill="#EE9591"/>
</g>
</svg>
