<svg width="394" height="320" viewBox="0 0 394 320" fill="none" xmlns="http://www.w3.org/2000/svg">
<g filter="url(#filter0_d_353_114)">
<rect x="10" y="10" width="274" height="200" rx="16" fill="#FFFBFB"/>
</g>
<path d="M171.43 52.009C177.701 58.522 182.546 65.4629 183.876 73.0693C185.206 80.6282 182.974 88.8526 179.078 96.5541C175.23 104.256 169.672 111.482 162.356 114.382C155.041 117.282 145.967 115.903 136.704 113.241C127.488 110.578 118.082 106.68 113.616 99.6442C109.151 92.5607 109.626 82.3396 112.238 73.3545C114.804 64.3219 119.554 56.5729 126.157 50.1074C132.761 43.6895 141.264 38.5552 149.34 39.0306C157.416 39.506 165.112 45.5436 171.43 52.009Z" fill="#F7C7C4"/>
<path fill-rule="evenodd" clip-rule="evenodd" d="M137.914 61C132.09 61 127.559 65.8568 127.5 71.5606L127.5 71.5608C127.479 73.6584 127.78 75.634 128.342 77.5H127.5C126.672 77.5 126 78.1716 126 79C126 79.8284 126.672 80.5 127.5 80.5H129.505C132.629 87.057 138.959 92.1681 145.312 96.4805C145.81 96.8191 146.398 97.0001 147 97.0001C147.602 97.0001 148.19 96.8191 148.688 96.4805C154.038 92.8489 159.371 88.6509 162.788 83.5H166.5C167.328 83.5 168 82.8284 168 82C168 81.1716 167.328 80.5 166.5 80.5H164.494C165.788 77.7838 166.532 74.8195 166.5 71.561L166.5 71.5606C166.441 65.8568 161.91 61 156.086 61C152.511 61 149.882 62.7695 148.204 64.4355C147.737 64.8994 147.336 65.3622 147 65.7888C146.664 65.3622 146.263 64.8994 145.796 64.4355C144.118 62.7695 141.489 61 137.914 61ZM161.111 80.5C162.652 77.7801 163.532 74.8347 163.5 71.5909C163.457 67.4193 160.155 64 156.086 64C153.575 64 151.661 65.2305 150.318 66.5645C149.649 67.2283 149.146 67.8959 148.811 68.3966C148.644 68.6458 148.521 68.8502 148.443 68.9874C148.403 69.0559 148.375 69.1074 148.358 69.139C148.35 69.1548 148.344 69.1656 148.342 69.171L148.34 69.1745L145.888 69.5066C145.799 69.4081 145.722 69.2968 145.66 69.1746L145.658 69.171L145.649 69.1536L145.642 69.139C145.625 69.1074 145.597 69.0559 145.557 68.9874C145.479 68.8502 145.356 68.6458 145.189 68.3966C144.854 67.8959 144.351 67.2283 143.682 66.5645C142.339 65.2305 140.425 64 137.914 64C133.845 64 130.543 67.4193 130.5 71.591L140.72 70.2067L141.158 69.3292C141.433 68.7791 142.016 68.4527 142.629 68.5056C143.242 68.5584 143.76 68.9799 143.937 69.569L143.995 69.763L145.888 69.5066C145.888 69.5066 145.888 69.5067 145.888 69.5067L143.995 69.7631L147.35 80.9461L150.158 75.3292C150.412 74.821 150.932 74.5 151.5 74.5C152.068 74.5 152.588 74.821 152.842 75.3292L155.427 80.5H161.111ZM140.72 70.2068L130.5 71.5913C130.479 73.6779 130.836 75.641 131.503 77.5H137.073L140.72 70.2068ZM132.888 80.5C135.8 85.6404 141.071 89.9758 146.999 93.9992L147 94.0001L147.001 93.9992C151.74 90.7828 156.059 87.3671 159.088 83.5H154.5C153.932 83.5 153.412 83.179 153.158 82.6708L151.5 79.3541L148.342 85.6708C148.067 86.2209 147.484 86.5473 146.871 86.4944C146.258 86.4416 145.74 86.0201 145.563 85.431L142.15 74.0539L139.342 79.6708C139.088 80.179 138.568 80.5 138 80.5H132.888ZM145.888 69.5067L148.34 69.1745C148.085 69.6805 147.567 70 147 70C146.57 70 146.168 69.8162 145.888 69.5067Z" fill="#888888"/>
<path d="M86.2779 159.015L84.1832 161.236V167H80.9713V148.516H84.1832V157.187L85.9605 154.99L91.3688 148.516H95.2535L88.3854 156.704L95.6471 167H91.8385L86.2779 159.015ZM104.983 167C104.847 166.738 104.729 166.31 104.627 165.718C103.646 166.742 102.444 167.254 101.022 167.254C99.6423 167.254 98.5167 166.86 97.6449 166.073C96.7732 165.286 96.3373 164.313 96.3373 163.153C96.3373 161.689 96.879 160.568 97.9623 159.789C99.0541 159.002 100.611 158.608 102.634 158.608H104.526V157.707C104.526 156.996 104.327 156.429 103.929 156.006C103.531 155.574 102.926 155.358 102.114 155.358C101.411 155.358 100.836 155.536 100.387 155.892C99.9385 156.239 99.7143 156.683 99.7143 157.225H96.6293C96.6293 156.471 96.879 155.769 97.3783 155.117C97.8777 154.457 98.5548 153.941 99.4096 153.568C100.273 153.196 101.233 153.01 102.291 153.01C103.899 153.01 105.182 153.416 106.138 154.229C107.094 155.033 107.585 156.167 107.611 157.631V163.826C107.611 165.062 107.784 166.048 108.131 166.784V167H104.983ZM101.593 164.778C102.203 164.778 102.774 164.63 103.307 164.334C103.849 164.038 104.255 163.64 104.526 163.141V160.551H102.863C101.72 160.551 100.861 160.75 100.286 161.147C99.71 161.545 99.4223 162.108 99.4223 162.836C99.4223 163.428 99.6169 163.902 100.006 164.258C100.404 164.605 100.933 164.778 101.593 164.778ZM113.76 153.264V168.219C113.76 169.624 113.409 170.694 112.706 171.431C112.012 172.175 110.992 172.548 109.647 172.548C109.08 172.548 108.534 172.476 108.009 172.332V169.895C108.331 169.971 108.695 170.009 109.101 170.009C110.125 170.009 110.65 169.45 110.675 168.333V153.264H113.76ZM110.408 149.696C110.408 149.222 110.557 148.829 110.853 148.516C111.157 148.202 111.589 148.046 112.148 148.046C112.706 148.046 113.138 148.202 113.443 148.516C113.747 148.829 113.9 149.222 113.9 149.696C113.9 150.162 113.747 150.551 113.443 150.864C113.138 151.169 112.706 151.321 112.148 151.321C111.589 151.321 111.157 151.169 110.853 150.864C110.557 150.551 110.408 150.162 110.408 149.696ZM120.049 167H116.964V153.264H120.049V167ZM116.773 149.696C116.773 149.222 116.922 148.829 117.218 148.516C117.522 148.202 117.954 148.046 118.513 148.046C119.071 148.046 119.503 148.202 119.808 148.516C120.112 148.829 120.265 149.222 120.265 149.696C120.265 150.162 120.112 150.551 119.808 150.864C119.503 151.169 119.071 151.321 118.513 151.321C117.954 151.321 117.522 151.169 117.218 150.864C116.922 150.551 116.773 150.162 116.773 149.696ZM131.327 167C131.192 166.738 131.073 166.31 130.971 165.718C129.99 166.742 128.788 167.254 127.366 167.254C125.986 167.254 124.861 166.86 123.989 166.073C123.117 165.286 122.681 164.313 122.681 163.153C122.681 161.689 123.223 160.568 124.306 159.789C125.398 159.002 126.956 158.608 128.978 158.608H130.87V157.707C130.87 156.996 130.671 156.429 130.273 156.006C129.875 155.574 129.27 155.358 128.458 155.358C127.755 155.358 127.18 155.536 126.731 155.892C126.283 156.239 126.058 156.683 126.058 157.225H122.973C122.973 156.471 123.223 155.769 123.722 155.117C124.222 154.457 124.899 153.941 125.754 153.568C126.617 153.196 127.578 153.01 128.636 153.01C130.244 153.01 131.526 153.416 132.482 154.229C133.439 155.033 133.929 156.167 133.955 157.631V163.826C133.955 165.062 134.128 166.048 134.475 166.784V167H131.327ZM127.937 164.778C128.547 164.778 129.118 164.63 129.651 164.334C130.193 164.038 130.599 163.64 130.87 163.141V160.551H129.207C128.064 160.551 127.205 160.75 126.63 161.147C126.054 161.545 125.766 162.108 125.766 162.836C125.766 163.428 125.961 163.902 126.35 164.258C126.748 164.605 127.277 164.778 127.937 164.778ZM139.749 153.264L139.838 154.851C140.853 153.623 142.186 153.01 143.837 153.01C146.697 153.01 148.153 154.647 148.204 157.923V167H145.119V158.101C145.119 157.229 144.928 156.586 144.547 156.171C144.175 155.748 143.561 155.536 142.707 155.536C141.463 155.536 140.536 156.099 139.926 157.225V167H136.841V153.264H139.749ZM164.323 159.878H160.743V167H157.531V148.516H164.031C166.164 148.516 167.81 148.994 168.97 149.95C170.129 150.907 170.709 152.29 170.709 154.102C170.709 155.337 170.409 156.374 169.808 157.212C169.215 158.041 168.386 158.68 167.32 159.129L171.471 166.835V167H168.03L164.323 159.878ZM160.743 157.301H164.044C165.127 157.301 165.974 157.03 166.583 156.488C167.193 155.938 167.497 155.189 167.497 154.241C167.497 153.251 167.214 152.485 166.647 151.943C166.088 151.402 165.25 151.122 164.133 151.105H160.743V157.301ZM181.479 165.654C180.574 166.721 179.287 167.254 177.62 167.254C176.131 167.254 175.001 166.818 174.23 165.946C173.469 165.075 173.088 163.813 173.088 162.163V153.264H176.173V162.125C176.173 163.868 176.896 164.74 178.344 164.74C179.842 164.74 180.853 164.203 181.378 163.128V153.264H184.463V167H181.556L181.479 165.654ZM191.171 149.925V153.264H193.596V155.549H191.171V163.217C191.171 163.742 191.272 164.122 191.475 164.359C191.687 164.588 192.059 164.702 192.593 164.702C192.948 164.702 193.308 164.66 193.672 164.575V166.962C192.969 167.157 192.292 167.254 191.64 167.254C189.271 167.254 188.086 165.946 188.086 163.331V155.549H185.826V153.264H188.086V149.925H191.171ZM198.945 167H195.86V153.264H198.945V167ZM195.67 149.696C195.67 149.222 195.818 148.829 196.114 148.516C196.419 148.202 196.85 148.046 197.409 148.046C197.967 148.046 198.399 148.202 198.704 148.516C199.008 148.829 199.161 149.222 199.161 149.696C199.161 150.162 199.008 150.551 198.704 150.864C198.399 151.169 197.967 151.321 197.409 151.321C196.85 151.321 196.419 151.169 196.114 150.864C195.818 150.551 195.67 150.162 195.67 149.696ZM204.878 153.264L204.967 154.851C205.983 153.623 207.316 153.01 208.966 153.01C211.827 153.01 213.283 154.647 213.333 157.923V167H210.248V158.101C210.248 157.229 210.058 156.586 209.677 156.171C209.305 155.748 208.691 155.536 207.836 155.536C206.592 155.536 205.665 156.099 205.056 157.225V167H201.971V153.264H204.878Z" fill="#888888"/>
<defs>
<filter id="filter0_d_353_114" x="0" y="0" width="394" height="320" filterUnits="userSpaceOnUse" color-interpolation-filters="sRGB">
<feFlood flood-opacity="0" result="BackgroundImageFix"/>
<feColorMatrix in="SourceAlpha" type="matrix" values="0 0 0 0 0 0 0 0 0 0 0 0 0 0 0 0 0 0 127 0" result="hardAlpha"/>
<feOffset dx="50" dy="50"/>
<feGaussianBlur stdDeviation="30"/>
<feColorMatrix type="matrix" values="0 0 0 0 0.333333 0 0 0 0 0.333333 0 0 0 0 0.333333 0 0 0 0.08 0"/>
<feBlend mode="normal" in2="BackgroundImageFix" result="effect1_dropShadow_353_114"/>
<feBlend mode="normal" in="SourceGraphic" in2="effect1_dropShadow_353_114" result="shape"/>
</filter>
</defs>
</svg>
