<svg width="394" height="320" viewBox="0 0 394 320" fill="none" xmlns="http://www.w3.org/2000/svg">
<g filter="url(#filter0_d_353_113)">
<rect x="10" y="10" width="274" height="200" rx="16" fill="#FFFBFB"/>
</g>
<path d="M110.634 61.8203C105.158 75.4619 114.009 97.1733 128.783 107.1C143.557 117.027 164.19 115.234 175.08 105.883C185.969 96.5328 187.115 79.6249 182.276 66.8158C177.436 54.0708 166.61 45.4247 151.263 43.9516C135.916 42.4786 116.111 48.1786 110.634 61.8203Z" fill="#F7C7C4"/>
<path d="M106.285 159.878H102.705V167H99.4928V148.516H105.993C108.126 148.516 109.772 148.994 110.931 149.95C112.091 150.907 112.671 152.29 112.671 154.102C112.671 155.337 112.37 156.374 111.769 157.212C111.177 158.041 110.347 158.68 109.281 159.129L113.432 166.835V167H109.992L106.285 159.878ZM102.705 157.301H106.005C107.089 157.301 107.935 157.03 108.545 156.488C109.154 155.938 109.459 155.189 109.459 154.241C109.459 153.251 109.175 152.485 108.608 151.943C108.049 151.402 107.212 151.122 106.094 151.105H102.705V157.301ZM121.168 167.254C119.213 167.254 117.626 166.64 116.408 165.413C115.197 164.177 114.592 162.535 114.592 160.487V160.106C114.592 158.735 114.855 157.512 115.379 156.438C115.912 155.354 116.657 154.512 117.614 153.911C118.57 153.31 119.636 153.01 120.813 153.01C122.683 153.01 124.126 153.606 125.142 154.8C126.166 155.993 126.678 157.682 126.678 159.865V161.109H117.703C117.796 162.243 118.172 163.141 118.832 163.801C119.501 164.461 120.339 164.791 121.346 164.791C122.76 164.791 123.911 164.22 124.799 163.077L126.462 164.664C125.912 165.485 125.176 166.124 124.253 166.581C123.339 167.03 122.311 167.254 121.168 167.254ZM120.8 155.485C119.954 155.485 119.268 155.782 118.744 156.374C118.227 156.966 117.897 157.792 117.753 158.85H123.631V158.621C123.564 157.589 123.288 156.81 122.806 156.285C122.324 155.752 121.655 155.485 120.8 155.485ZM140.851 162.747L143.034 153.264H146.043L142.298 167H139.759L136.814 157.567L133.919 167H131.38L127.622 153.264H130.631L132.853 162.646L135.671 153.264H137.994L140.851 162.747ZM156.014 167C155.878 166.738 155.76 166.31 155.658 165.718C154.676 166.742 153.475 167.254 152.053 167.254C150.673 167.254 149.548 166.86 148.676 166.073C147.804 165.286 147.368 164.313 147.368 163.153C147.368 161.689 147.91 160.568 148.993 159.789C150.085 159.002 151.642 158.608 153.665 158.608H155.557V157.707C155.557 156.996 155.358 156.429 154.96 156.006C154.562 155.574 153.957 155.358 153.145 155.358C152.442 155.358 151.867 155.536 151.418 155.892C150.969 156.239 150.745 156.683 150.745 157.225H147.66C147.66 156.471 147.91 155.769 148.409 155.117C148.909 154.457 149.586 153.941 150.44 153.568C151.304 153.196 152.264 153.01 153.322 153.01C154.93 153.01 156.213 153.416 157.169 154.229C158.125 155.033 158.616 156.167 158.642 157.631V163.826C158.642 165.062 158.815 166.048 159.162 166.784V167H156.014ZM152.624 164.778C153.233 164.778 153.805 164.63 154.338 164.334C154.88 164.038 155.286 163.64 155.557 163.141V160.551H153.894C152.751 160.551 151.892 160.75 151.316 161.147C150.741 161.545 150.453 162.108 150.453 162.836C150.453 163.428 150.648 163.902 151.037 164.258C151.435 164.605 151.964 164.778 152.624 164.778ZM168.764 156.082C168.358 156.014 167.939 155.98 167.508 155.98C166.094 155.98 165.142 156.522 164.651 157.605V167H161.566V153.264H164.512L164.588 154.8C165.332 153.606 166.365 153.01 167.685 153.01C168.125 153.01 168.489 153.069 168.777 153.188L168.764 156.082ZM169.582 160.03C169.582 157.914 170.073 156.217 171.054 154.939C172.036 153.653 173.352 153.01 175.003 153.01C176.458 153.01 177.635 153.518 178.532 154.533V147.5H181.617V167H178.824L178.671 165.578C177.749 166.695 176.518 167.254 174.977 167.254C173.369 167.254 172.066 166.606 171.067 165.312C170.077 164.017 169.582 162.256 169.582 160.03ZM172.667 160.297C172.667 161.693 172.933 162.785 173.466 163.572C174.008 164.351 174.774 164.74 175.764 164.74C177.025 164.74 177.948 164.177 178.532 163.052V157.187C177.965 156.086 177.051 155.536 175.79 155.536C174.791 155.536 174.021 155.934 173.479 156.729C172.937 157.517 172.667 158.706 172.667 160.297ZM192.235 163.268C192.235 162.717 192.006 162.299 191.549 162.011C191.101 161.723 190.352 161.469 189.302 161.249C188.253 161.029 187.377 160.75 186.674 160.411C185.134 159.666 184.364 158.587 184.364 157.174C184.364 155.989 184.863 154.999 185.862 154.203C186.86 153.408 188.13 153.01 189.67 153.01C191.312 153.01 192.637 153.416 193.644 154.229C194.66 155.041 195.167 156.095 195.167 157.39H192.082C192.082 156.797 191.862 156.306 191.422 155.917C190.982 155.519 190.398 155.32 189.67 155.32C188.993 155.32 188.439 155.477 188.007 155.79C187.584 156.103 187.372 156.522 187.372 157.047C187.372 157.521 187.571 157.889 187.969 158.151C188.367 158.414 189.171 158.68 190.381 158.951C191.592 159.214 192.539 159.531 193.225 159.903C193.919 160.267 194.431 160.707 194.761 161.224C195.1 161.74 195.269 162.366 195.269 163.103C195.269 164.338 194.757 165.341 193.733 166.111C192.709 166.873 191.367 167.254 189.708 167.254C188.583 167.254 187.58 167.051 186.7 166.645C185.819 166.238 185.134 165.68 184.643 164.969C184.152 164.258 183.907 163.492 183.907 162.671H186.903C186.945 163.399 187.22 163.962 187.728 164.359C188.236 164.749 188.909 164.943 189.746 164.943C190.559 164.943 191.177 164.791 191.6 164.486C192.023 164.173 192.235 163.767 192.235 163.268Z" fill="#888888"/>
<path fill-rule="evenodd" clip-rule="evenodd" d="M136.5 69C136.5 63.201 141.201 58.5 147 58.5C152.799 58.5 157.5 63.201 157.5 69C157.5 70.8216 157.036 72.5348 156.22 74.028C156.103 74.1656 156.013 74.322 155.953 74.4888C154.447 76.9399 151.963 78.7253 149.044 79.3012C149.013 79.3061 148.983 79.3119 148.953 79.3187C148.32 79.4377 147.667 79.5 147 79.5C141.201 79.5 136.5 74.799 136.5 69ZM160.5 69C160.5 71.1624 159.992 73.2061 159.088 75.018L167.812 90.7733C168.07 91.2391 168.062 91.8067 167.79 92.2647C167.519 92.7227 167.025 93.0026 166.493 93L158.349 92.9606L154.288 99.7685C154.002 100.248 153.474 100.529 152.917 100.498C152.359 100.467 151.865 100.129 151.634 99.6207L147 89.4251L142.366 99.6207C142.135 100.129 141.641 100.467 141.083 100.498C140.526 100.529 139.998 100.248 139.712 99.7685L135.651 92.9606L127.507 93C126.974 93.0026 126.48 92.7224 126.209 92.2638C125.938 91.8053 125.93 91.2373 126.189 90.7716L134.925 75.0445C134.013 73.226 133.5 71.173 133.5 69C133.5 61.5442 139.544 55.5 147 55.5C154.456 55.5 160.5 61.5442 160.5 69ZM150.337 82.0845C153.051 81.3943 155.437 79.8817 157.214 77.8275L163.948 89.9876L158.364 89.9606L158.364 89.9606C157.842 89.9581 157.329 90.0916 156.875 90.348C156.42 90.6045 156.041 90.9751 155.773 91.4231L155.773 91.4234L153.18 95.7706L148.648 85.8002L150.337 82.0845ZM146.853 82.4992L145.645 85.1569C145.638 85.1714 145.631 85.186 145.625 85.2006L140.82 95.7707L138.227 91.4231C137.959 90.9751 137.58 90.6045 137.125 90.348C136.671 90.0916 136.158 89.9581 135.636 89.9606L135.636 89.9606L130.056 89.9876L136.801 77.8455C139.247 80.6625 142.84 82.4564 146.853 82.4992ZM142.5 69C142.5 66.5147 144.515 64.5 147 64.5C149.485 64.5 151.5 66.5147 151.5 69C151.5 71.4853 149.485 73.5 147 73.5C144.515 73.5 142.5 71.4853 142.5 69ZM147 61.5C142.858 61.5 139.5 64.8579 139.5 69C139.5 73.1421 142.858 76.5 147 76.5C151.142 76.5 154.5 73.1421 154.5 69C154.5 64.8579 151.142 61.5 147 61.5Z" fill="#888888"/>
<defs>
<filter id="filter0_d_353_113" x="0" y="0" width="394" height="320" filterUnits="userSpaceOnUse" color-interpolation-filters="sRGB">
<feFlood flood-opacity="0" result="BackgroundImageFix"/>
<feColorMatrix in="SourceAlpha" type="matrix" values="0 0 0 0 0 0 0 0 0 0 0 0 0 0 0 0 0 0 127 0" result="hardAlpha"/>
<feOffset dx="50" dy="50"/>
<feGaussianBlur stdDeviation="30"/>
<feColorMatrix type="matrix" values="0 0 0 0 0.333333 0 0 0 0 0.333333 0 0 0 0 0.333333 0 0 0 0.08 0"/>
<feBlend mode="normal" in2="BackgroundImageFix" result="effect1_dropShadow_353_113"/>
<feBlend mode="normal" in="SourceGraphic" in2="effect1_dropShadow_353_113" result="shape"/>
</filter>
</defs>
</svg>
