<svg width="384" height="320" viewBox="0 0 384 320" fill="none" xmlns="http://www.w3.org/2000/svg">
<g filter="url(#filter0_d_353_112)">
<rect x="10" y="10" width="274" height="200" rx="16" fill="#FFFBFB"/>
</g>
<path d="M171.928 47.4329C180.448 53.9895 186.198 65.1252 184.787 74.908C183.376 84.6388 174.698 92.9646 166.178 100.562C157.71 108.159 149.346 115.028 140.146 115.913C130.946 116.745 120.857 111.542 114.951 103.944C109.044 96.347 107.267 86.304 108.26 77.3017C109.253 68.2994 113.017 60.2338 118.923 53.6772C124.83 47.1727 132.932 42.0731 142.551 40.5121C152.221 38.951 163.407 40.8763 171.928 47.4329Z" fill="#F7C7C4"/>
<path d="M66.2885 159.167H58.849V167H55.6371V148.516H67.3803V151.105H58.849V156.603H66.2885V159.167ZM76.1955 156.082C75.7893 156.014 75.3703 155.98 74.9387 155.98C73.5253 155.98 72.5731 156.522 72.0822 157.605V167H68.9973V153.264H71.9426L72.0187 154.8C72.7635 153.606 73.7961 153.01 75.1164 153.01C75.5565 153.01 75.9204 153.069 76.2082 153.188L76.1955 156.082ZM83.6396 167.254C81.6846 167.254 80.0977 166.64 78.8789 165.413C77.6686 164.177 77.0635 162.535 77.0635 160.487V160.106C77.0635 158.735 77.3258 157.512 77.8506 156.438C78.3838 155.354 79.1286 154.512 80.085 153.911C81.0413 153.31 82.1077 153.01 83.2842 153.01C85.1546 153.01 86.5977 153.606 87.6133 154.8C88.6374 155.993 89.1494 157.682 89.1494 159.865V161.109H80.1738C80.2669 162.243 80.6436 163.141 81.3037 163.801C81.9723 164.461 82.8102 164.791 83.8174 164.791C85.2308 164.791 86.3818 164.22 87.2705 163.077L88.9336 164.664C88.3835 165.485 87.6471 166.124 86.7246 166.581C85.8105 167.03 84.7822 167.254 83.6396 167.254ZM83.2715 155.485C82.4251 155.485 81.7396 155.782 81.2148 156.374C80.6986 156.966 80.3685 157.792 80.2246 158.85H86.1025V158.621C86.0348 157.589 85.7598 156.81 85.2773 156.285C84.7949 155.752 84.1263 155.485 83.2715 155.485ZM97.3045 167.254C95.3494 167.254 93.7625 166.64 92.5437 165.413C91.3335 164.177 90.7283 162.535 90.7283 160.487V160.106C90.7283 158.735 90.9907 157.512 91.5154 156.438C92.0486 155.354 92.7934 154.512 93.7498 153.911C94.7062 153.31 95.7726 153.01 96.949 153.01C98.8195 153.01 100.262 153.606 101.278 154.8C102.302 155.993 102.814 157.682 102.814 159.865V161.109H93.8387C93.9318 162.243 94.3084 163.141 94.9686 163.801C95.6372 164.461 96.4751 164.791 97.4822 164.791C98.8956 164.791 100.047 164.22 100.935 163.077L102.598 164.664C102.048 165.485 101.312 166.124 100.389 166.581C99.4754 167.03 98.4471 167.254 97.3045 167.254ZM96.9363 155.485C96.09 155.485 95.4044 155.782 94.8797 156.374C94.3634 156.966 94.0333 157.792 93.8895 158.85H99.7674V158.621C99.6997 157.589 99.4246 156.81 98.9422 156.285C98.4598 155.752 97.7911 155.485 96.9363 155.485ZM125.891 162.43L128.735 148.516H131.921L127.656 167H124.583L121.067 153.505L117.474 167H114.389L110.123 148.516H113.31L116.179 162.404L119.708 148.516H122.4L125.891 162.43ZM139.315 167.254C137.36 167.254 135.773 166.64 134.554 165.413C133.344 164.177 132.738 162.535 132.738 160.487V160.106C132.738 158.735 133.001 157.512 133.526 156.438C134.059 155.354 134.804 154.512 135.76 153.911C136.716 153.31 137.783 153.01 138.959 153.01C140.83 153.01 142.273 153.606 143.288 154.8C144.312 155.993 144.824 157.682 144.824 159.865V161.109H135.849C135.942 162.243 136.319 163.141 136.979 163.801C137.647 164.461 138.485 164.791 139.492 164.791C140.906 164.791 142.057 164.22 142.946 163.077L144.609 164.664C144.058 165.485 143.322 166.124 142.4 166.581C141.486 167.03 140.457 167.254 139.315 167.254ZM138.946 155.485C138.1 155.485 137.415 155.782 136.89 156.374C136.374 156.966 136.043 157.792 135.9 158.85H141.778V158.621C141.71 157.589 141.435 156.81 140.952 156.285C140.47 155.752 139.801 155.485 138.946 155.485ZM158.984 160.271C158.984 162.404 158.506 164.101 157.55 165.362C156.602 166.623 155.294 167.254 153.627 167.254C152.019 167.254 150.766 166.674 149.869 165.515L149.717 167H146.924V147.5H150.009V154.584C150.897 153.535 152.095 153.01 153.602 153.01C155.277 153.01 156.593 153.632 157.55 154.876C158.506 156.12 158.984 157.859 158.984 160.094V160.271ZM155.899 160.005C155.899 158.515 155.637 157.398 155.112 156.653C154.588 155.909 153.826 155.536 152.827 155.536C151.49 155.536 150.55 156.12 150.009 157.288V162.95C150.559 164.144 151.507 164.74 152.853 164.74C153.817 164.74 154.562 164.381 155.087 163.661C155.612 162.942 155.882 161.854 155.899 160.398V160.005ZM170.965 160.132V167H167.754V148.516H174.825C176.89 148.516 178.528 149.053 179.738 150.128C180.957 151.203 181.566 152.625 181.566 154.394C181.566 156.205 180.969 157.614 179.776 158.621C178.591 159.628 176.928 160.132 174.787 160.132H170.965ZM170.965 157.555H174.825C175.967 157.555 176.839 157.288 177.44 156.755C178.041 156.213 178.341 155.435 178.341 154.419C178.341 153.42 178.037 152.625 177.427 152.032C176.818 151.431 175.98 151.122 174.914 151.105H170.965V157.555ZM190.978 156.082C190.572 156.014 190.153 155.98 189.721 155.98C188.308 155.98 187.356 156.522 186.865 157.605V167H183.78V153.264H186.725L186.801 154.8C187.546 153.606 188.579 153.01 189.899 153.01C190.339 153.01 190.703 153.069 190.991 153.188L190.978 156.082ZM191.592 160.005C191.592 158.659 191.859 157.449 192.392 156.374C192.925 155.291 193.674 154.461 194.639 153.886C195.604 153.302 196.712 153.01 197.965 153.01C199.819 153.01 201.321 153.606 202.472 154.8C203.631 155.993 204.258 157.576 204.351 159.548L204.363 160.271C204.363 161.626 204.101 162.836 203.576 163.902C203.06 164.969 202.315 165.794 201.342 166.378C200.377 166.962 199.26 167.254 197.99 167.254C196.052 167.254 194.499 166.611 193.331 165.324C192.172 164.029 191.592 162.307 191.592 160.157V160.005ZM194.677 160.271C194.677 161.685 194.969 162.794 195.553 163.598C196.137 164.393 196.949 164.791 197.99 164.791C199.031 164.791 199.84 164.385 200.415 163.572C200.999 162.76 201.291 161.571 201.291 160.005C201.291 158.617 200.991 157.517 200.39 156.704C199.797 155.892 198.989 155.485 197.965 155.485C196.958 155.485 196.158 155.887 195.566 156.691C194.973 157.487 194.677 158.68 194.677 160.271ZM207.491 167V155.549H205.396V153.264H207.491V152.324C207.5 151.249 207.728 150.327 208.177 149.557C208.625 148.786 209.26 148.207 210.081 147.817C210.902 147.428 211.888 147.233 213.039 147.233C213.716 147.233 214.364 147.305 214.981 147.449C215.608 147.593 216.255 147.775 216.924 147.995L216.454 150.547C215.286 150.141 214.22 149.938 213.255 149.938C212.315 149.938 211.634 150.145 211.211 150.56C210.788 150.966 210.576 151.579 210.576 152.4V153.264H213.28V155.549H210.576V167H207.491ZM218.384 167H215.299V153.264H218.384V167ZM224.787 167H221.702V147.5H224.787V167ZM233.907 167.254C231.952 167.254 230.365 166.64 229.146 165.413C227.936 164.177 227.331 162.535 227.331 160.487V160.106C227.331 158.735 227.593 157.512 228.118 156.438C228.651 155.354 229.396 154.512 230.352 153.911C231.309 153.31 232.375 153.01 233.551 153.01C235.422 153.01 236.865 153.606 237.88 154.8C238.905 155.993 239.417 157.682 239.417 159.865V161.109H230.441C230.534 162.243 230.911 163.141 231.571 163.801C232.24 164.461 233.077 164.791 234.085 164.791C235.498 164.791 236.649 164.22 237.538 163.077L239.201 164.664C238.651 165.485 237.914 166.124 236.992 166.581C236.078 167.03 235.049 167.254 233.907 167.254ZM233.539 155.485C232.692 155.485 232.007 155.782 231.482 156.374C230.966 156.966 230.636 157.792 230.492 158.85H236.37V158.621C236.302 157.589 236.027 156.81 235.545 156.285C235.062 155.752 234.393 155.485 233.539 155.485Z" fill="#888888"/>
<path fill-rule="evenodd" clip-rule="evenodd" d="M147 57C135.403 57 126 66.4025 126 78C126 89.5975 135.403 99 147 99C158.597 99 168 89.5975 168 78C168 66.4025 158.597 57 147 57ZM129 78C129 76.3666 129.218 74.784 129.625 73.2796C129.96 74.0016 130.369 74.6757 130.78 75.3528C131.212 76.0665 131.647 76.7837 132 77.5641C132.462 78.592 133.334 78.9291 134.208 79.2671C134.996 79.5715 135.785 79.8766 136.279 80.6878C136.771 81.4961 136.721 82.4188 136.672 83.3449C136.628 84.1589 136.584 84.9756 136.908 85.7194C137.219 86.4329 137.79 86.8017 138.374 87.1787C138.735 87.4114 139.101 87.6473 139.413 87.9694C140.126 88.6973 140.217 89.6543 140.308 90.6092L140.308 90.6093L140.308 90.6093L140.308 90.6094C140.324 90.7724 140.339 90.9352 140.358 91.0969C140.502 92.4014 140.735 93.6944 141.056 94.9669L141.064 94.9982C134.04 92.5453 129 85.8608 129 78ZM131.641 70.4375C131.501 70.049 131.364 69.6695 131.198 69.3735C132.419 67.1418 134.099 65.1971 136.111 63.6662C136.075 64.1034 136.114 64.5443 136.225 64.9699C136.359 65.4836 136.598 65.9643 136.925 66.3825C137.116 66.6287 137.346 66.8173 137.568 66.9987C137.99 67.3444 138.38 67.6637 138.406 68.3044C138.445 69.2419 138.299 69.7219 137.686 70.3809C137.56 70.5145 137.452 70.6746 137.344 70.8342L137.343 70.8343C137.224 71.0108 137.105 71.1866 136.963 71.325L136.918 71.3691L136.918 71.3691C136.797 71.4873 136.746 71.5369 136.685 71.5626C136.641 71.5813 136.591 71.5873 136.506 71.5978C136.441 71.6057 136.357 71.6161 136.238 71.6363C135.428 71.7732 134.718 71.9722 133.959 72.1848C133.809 72.2268 133.657 72.2694 133.502 72.3122C132.425 72.6099 132.021 71.4905 131.641 70.4375ZM140.307 62.5959C140.462 62.2754 140.308 61.8227 140.038 61.396C140.376 61.254 140.719 61.1222 141.067 61.0007C141.286 61.1532 141.529 61.2618 141.818 61.2806C142.03 61.2949 142.237 61.2657 142.44 61.2371C142.84 61.181 143.222 61.1273 143.585 61.41C143.744 61.533 143.892 61.6646 144.038 61.7944C144.447 62.1594 144.842 62.5106 145.436 62.6184C146.216 62.76 147.042 62.3044 147.235 61.5066C147.35 61.0412 147.243 60.551 147.137 60.0656L147.123 60.0004C150.78 60.0249 154.178 61.1401 157.008 63.0368C156.814 62.949 156.577 62.95 156.282 63.0872C155.713 63.3516 154.907 64.0247 154.84 64.6922C154.764 65.4497 155.882 65.5566 156.412 65.5566C157.208 65.5566 158.017 65.2003 157.76 64.2797C157.643 63.8628 157.482 63.4267 157.218 63.1796C157.82 63.5958 158.396 64.0478 158.943 64.5326C158.932 64.5431 158.921 64.5538 158.911 64.5647C158.753 64.7294 158.587 64.884 158.423 65.0375C158.026 65.4084 157.636 65.7728 157.374 66.2569C157.114 66.7378 156.82 66.9675 156.293 67.0922C156.23 67.1069 156.166 67.1196 156.101 67.1325C155.863 67.1794 155.618 67.2279 155.426 67.3809C154.748 67.9153 155.134 69.1987 155.777 69.585C156.59 70.0716 157.795 69.8428 158.408 69.1481C158.541 68.9976 158.659 68.8163 158.778 68.633C159.088 68.154 159.408 67.6606 160.031 67.6613C160.411 67.6605 160.775 67.809 161.046 68.0747C161.316 68.354 161.341 68.6204 161.37 68.9338C161.379 69.0339 161.389 69.1387 161.408 69.2503C161.542 70.0728 162.27 69.6265 162.71 69.2069C163.028 69.7751 163.317 70.3625 163.574 70.9667C163.538 71.0178 163.503 71.0693 163.469 71.1205C163.028 71.7681 162.619 72.3696 161.539 71.6147C161.301 71.449 161.095 71.2576 160.891 71.0688L160.891 71.0688C160.498 70.7044 160.115 70.3499 159.539 70.2084C158.879 70.0464 158.204 70.1701 157.546 70.2907C157.443 70.3097 157.34 70.3286 157.238 70.3463C157.115 70.3673 156.99 70.3868 156.863 70.4065C156.097 70.5252 155.27 70.6535 154.712 71.2106C154.41 71.5104 154.177 71.8593 153.942 72.2106C153.686 72.5921 153.429 72.9766 153.081 73.3041C151.786 74.5228 151.239 75.8531 152.078 77.5763C152.884 79.2328 154.57 80.1319 156.39 80.0138C156.775 79.9881 157.163 79.9199 157.535 79.8546C158.889 79.6167 160.024 79.4173 159.983 81.4556C159.965 82.3744 160.157 83.0119 160.439 83.8659C160.645 84.4859 160.678 85.0908 160.712 85.7168C160.721 85.8859 160.73 86.0565 160.743 86.2294C160.81 87.1482 160.938 88.1343 161.197 89.067C157.902 93.2867 152.768 96 147 96C145.979 96 144.979 95.9151 144.005 95.7519C144.007 95.7017 144.008 95.6523 144.01 95.6039C144.017 95.4073 144.024 95.2283 144.044 95.0934C144.272 93.6028 145.018 92.145 146.025 91.0294C146.437 90.574 146.911 90.1794 147.386 89.7849L147.386 89.7849C148.058 89.2259 148.73 88.6671 149.223 87.9356C150.041 86.7188 150.288 85.0772 149.948 83.6531C149.598 82.1795 148.091 81.3931 146.69 80.662C146.09 80.3495 145.511 80.047 145.049 79.7053C144.819 79.5346 144.595 79.3398 144.369 79.1434L144.369 79.1434C143.728 78.5848 143.072 78.0142 142.211 77.9531C142.007 77.9385 141.816 77.9463 141.627 77.9539C141.321 77.9664 141.024 77.9785 140.694 77.8931C140.541 77.8535 140.397 77.8003 140.257 77.7481C139.952 77.6348 139.661 77.5266 139.305 77.5734C138.879 77.6295 138.521 77.8611 138.167 78.0912C137.714 78.3848 137.264 78.676 136.68 78.5972C135.691 78.4641 134.672 77.3072 134.447 76.365C134.158 75.1538 135.116 74.7609 136.143 74.6531C136.571 74.6081 137.052 74.5594 137.464 74.7159C137.764 74.8278 137.977 75.041 138.19 75.2545C138.361 75.4256 138.532 75.5969 138.748 75.7163C139.66 76.2159 139.845 75.4172 139.705 74.6072C139.683 74.4755 139.66 74.3522 139.638 74.2361L139.638 74.2359L139.638 74.2359C139.459 73.2825 139.37 72.8084 140.334 72.0647C140.379 72.0305 140.423 71.9968 140.467 71.9636L140.468 71.9628L140.468 71.9624C141.159 71.4368 141.718 71.0107 141.606 70.0388C141.582 69.8388 141.53 69.6749 141.483 69.5234C141.385 69.2147 141.304 68.9575 141.512 68.5519C141.743 68.1004 142.368 67.6923 142.79 67.4176L142.814 67.4016C143.136 67.1915 143.676 67.0483 144.239 66.8991C145.574 66.545 147.037 66.1573 146.011 64.7616C145.583 64.1794 144.792 63.1388 144.042 62.9963C143.405 62.8758 143.008 63.3209 142.614 63.7632C142.429 63.9714 142.244 64.1789 142.035 64.3266C141.36 64.8038 140.046 65.3456 139.37 64.6078C138.765 63.9472 139.232 63.5817 139.711 63.2069C139.951 63.0185 140.195 62.8277 140.307 62.5959ZM163.683 84.7702C164.532 82.6802 165 80.3947 165 78C165 76.762 164.875 75.5532 164.637 74.3854C163.759 74.8719 162.584 75.065 161.858 74.9588C161.116 74.835 160.415 74.534 159.814 74.0813C159.695 73.9937 159.568 73.8661 159.436 73.7338C159.205 73.5033 158.961 73.2583 158.723 73.185C158.348 73.0697 157.039 73.3294 156.754 73.5553C156.585 73.6892 156.442 73.9308 156.303 74.1658C156.208 74.3272 156.114 74.4855 156.015 74.6034C155.89 74.7519 155.735 74.8912 155.579 75.0311C155.385 75.2047 155.191 75.3791 155.053 75.5728C153.804 77.3403 156.89 76.8567 157.692 76.731L157.706 76.7288C159.25 76.4859 160.867 76.7728 161.969 77.9681C162.867 78.9424 162.891 79.8819 162.919 80.9592C162.927 81.2524 162.935 81.5558 162.961 81.8728C162.996 82.2981 163.148 82.7116 163.301 83.1273C163.435 83.4897 163.569 83.8537 163.627 84.2288C163.654 84.4086 163.671 84.5893 163.683 84.7702ZM146.818 86.1206C146.454 86.7703 145.801 87.281 145.168 87.7768C144.822 88.0472 144.482 88.3131 144.198 88.5947C144.143 88.649 144.073 88.7368 143.994 88.8354C143.758 89.13 143.446 89.5206 143.241 89.3991C143.107 89.3196 143.033 88.8392 142.977 88.4722C142.951 88.3025 142.929 88.1571 142.906 88.0866C142.534 86.963 141.823 85.9822 140.871 85.2788C140.769 85.2015 140.614 85.1163 140.449 85.0251C140.139 84.8539 139.791 84.6619 139.682 84.4631C139.546 84.2233 139.597 83.747 139.638 83.366C139.654 83.2213 139.668 83.0903 139.67 82.9913C139.674 82.7857 139.64 82.5269 139.604 82.2593C139.549 81.8435 139.492 81.4066 139.57 81.1163C139.629 80.9009 139.621 80.8206 139.618 80.7962C139.617 80.7905 139.617 80.7878 139.618 80.7872C139.619 80.7867 139.621 80.7877 139.624 80.7896C139.643 80.7999 139.708 80.8366 139.924 80.7891C140.183 80.7309 141.256 80.9194 141.579 80.9869C141.992 81.0728 142.256 81.2963 142.555 81.5488C142.627 81.6103 142.702 81.6735 142.781 81.7369C143.846 82.5909 145.019 83.2519 146.213 83.9063C147.137 84.4181 147.409 85.0659 146.818 86.1206Z" fill="#888888"/>
<defs>
<filter id="filter0_d_353_112" x="0" y="0" width="394" height="320" filterUnits="userSpaceOnUse" color-interpolation-filters="sRGB">
<feFlood flood-opacity="0" result="BackgroundImageFix"/>
<feColorMatrix in="SourceAlpha" type="matrix" values="0 0 0 0 0 0 0 0 0 0 0 0 0 0 0 0 0 0 127 0" result="hardAlpha"/>
<feOffset dx="50" dy="50"/>
<feGaussianBlur stdDeviation="30"/>
<feColorMatrix type="matrix" values="0 0 0 0 0.333333 0 0 0 0 0.333333 0 0 0 0 0.333333 0 0 0 0.08 0"/>
<feBlend mode="normal" in2="BackgroundImageFix" result="effect1_dropShadow_353_112"/>
<feBlend mode="normal" in="SourceGraphic" in2="effect1_dropShadow_353_112" result="shape"/>
</filter>
</defs>
</svg>
