<svg width="394" height="320" viewBox="0 0 394 320" fill="none" xmlns="http://www.w3.org/2000/svg">
<g filter="url(#filter0_d_363_11)">
<rect x="10" y="10" width="274" height="200" rx="16" fill="#FFFBFB"/>
</g>
<path d="M84.983 159.015L82.8883 161.236V167H79.6764V148.516H82.8883V157.187L84.6656 154.99L90.0738 148.516H93.9586L87.0904 156.704L94.3521 167H90.5436L84.983 159.015ZM101.2 167.254C99.2445 167.254 97.6576 166.64 96.4389 165.413C95.2286 164.177 94.6234 162.535 94.6234 160.487V160.106C94.6234 158.735 94.8858 157.512 95.4105 156.438C95.9438 155.354 96.6885 154.512 97.6449 153.911C98.6013 153.31 99.6677 153.01 100.844 153.01C102.715 153.01 104.158 153.606 105.173 154.8C106.197 155.993 106.709 157.682 106.709 159.865V161.109H97.7338C97.8269 162.243 98.2035 163.141 98.8637 163.801C99.5323 164.461 100.37 164.791 101.377 164.791C102.791 164.791 103.942 164.22 104.83 163.077L106.494 164.664C105.943 165.485 105.207 166.124 104.285 166.581C103.371 167.03 102.342 167.254 101.2 167.254ZM100.831 155.485C99.9851 155.485 99.2995 155.782 98.7748 156.374C98.2585 156.966 97.9285 157.792 97.7846 158.85H103.663V158.621C103.595 157.589 103.32 156.81 102.837 156.285C102.355 155.752 101.686 155.485 100.831 155.485ZM112.097 167H109.012V147.5H112.097V167ZM123.375 167C123.24 166.738 123.121 166.31 123.02 165.718C122.038 166.742 120.836 167.254 119.414 167.254C118.035 167.254 116.909 166.86 116.037 166.073C115.165 165.286 114.729 164.313 114.729 163.153C114.729 161.689 115.271 160.568 116.354 159.789C117.446 159.002 119.004 158.608 121.026 158.608H122.918V157.707C122.918 156.996 122.719 156.429 122.321 156.006C121.924 155.574 121.318 155.358 120.506 155.358C119.803 155.358 119.228 155.536 118.779 155.892C118.331 156.239 118.106 156.683 118.106 157.225H115.021C115.021 156.471 115.271 155.769 115.771 155.117C116.27 154.457 116.947 153.941 117.802 153.568C118.665 153.196 119.626 153.01 120.684 153.01C122.292 153.01 123.574 153.416 124.53 154.229C125.487 155.033 125.978 156.167 126.003 157.631V163.826C126.003 165.062 126.176 166.048 126.523 166.784V167H123.375ZM119.985 164.778C120.595 164.778 121.166 164.63 121.699 164.334C122.241 164.038 122.647 163.64 122.918 163.141V160.551H121.255C120.112 160.551 119.253 160.75 118.678 161.147C118.102 161.545 117.814 162.108 117.814 162.836C117.814 163.428 118.009 163.902 118.398 164.258C118.796 164.605 119.325 164.778 119.985 164.778ZM136.634 163.268C136.634 162.717 136.405 162.299 135.948 162.011C135.499 161.723 134.75 161.469 133.701 161.249C132.651 161.029 131.776 160.75 131.073 160.411C129.533 159.666 128.762 158.587 128.762 157.174C128.762 155.989 129.262 154.999 130.261 154.203C131.259 153.408 132.529 153.01 134.069 153.01C135.711 153.01 137.036 153.416 138.043 154.229C139.058 155.041 139.566 156.095 139.566 157.39H136.481C136.481 156.797 136.261 156.306 135.821 155.917C135.381 155.519 134.797 155.32 134.069 155.32C133.392 155.32 132.838 155.477 132.406 155.79C131.983 156.103 131.771 156.522 131.771 157.047C131.771 157.521 131.97 157.889 132.368 158.151C132.766 158.414 133.57 158.68 134.78 158.951C135.99 159.214 136.938 159.531 137.624 159.903C138.318 160.267 138.83 160.707 139.16 161.224C139.498 161.74 139.668 162.366 139.668 163.103C139.668 164.338 139.156 165.341 138.132 166.111C137.108 166.873 135.766 167.254 134.107 167.254C132.982 167.254 131.979 167.051 131.098 166.645C130.218 166.238 129.533 165.68 129.042 164.969C128.551 164.258 128.305 163.492 128.305 162.671H131.302C131.344 163.399 131.619 163.962 132.127 164.359C132.635 164.749 133.307 164.943 134.145 164.943C134.958 164.943 135.576 164.791 135.999 164.486C136.422 164.173 136.634 163.767 136.634 163.268ZM148.538 167V148.516H154.873C156.964 148.516 158.555 148.935 159.647 149.772C160.739 150.61 161.285 151.859 161.285 153.518C161.285 154.364 161.056 155.126 160.599 155.803C160.142 156.48 159.473 157.005 158.593 157.377C159.592 157.648 160.362 158.16 160.904 158.913C161.454 159.658 161.729 160.555 161.729 161.604C161.729 163.34 161.17 164.673 160.053 165.604C158.944 166.535 157.353 167 155.28 167H148.538ZM151.75 158.659V164.436H155.318C156.325 164.436 157.112 164.186 157.679 163.687C158.246 163.187 158.53 162.493 158.53 161.604C158.53 159.683 157.548 158.701 155.584 158.659H151.75ZM151.75 156.298H154.899C155.898 156.298 156.676 156.074 157.235 155.625C157.802 155.168 158.085 154.525 158.085 153.695C158.085 152.781 157.823 152.121 157.298 151.715C156.782 151.309 155.974 151.105 154.873 151.105H151.75V156.298ZM167.624 167H164.539V153.264H167.624V167ZM164.349 149.696C164.349 149.222 164.497 148.829 164.793 148.516C165.098 148.202 165.529 148.046 166.088 148.046C166.647 148.046 167.078 148.202 167.383 148.516C167.688 148.829 167.84 149.222 167.84 149.696C167.84 150.162 167.688 150.551 167.383 150.864C167.078 151.169 166.647 151.321 166.088 151.321C165.529 151.321 165.098 151.169 164.793 150.864C164.497 150.551 164.349 150.162 164.349 149.696ZM178.395 163.268C178.395 162.717 178.166 162.299 177.709 162.011C177.26 161.723 176.511 161.469 175.462 161.249C174.412 161.029 173.536 160.75 172.834 160.411C171.294 159.666 170.523 158.587 170.523 157.174C170.523 155.989 171.023 154.999 172.021 154.203C173.02 153.408 174.29 153.01 175.83 153.01C177.472 153.01 178.797 153.416 179.804 154.229C180.819 155.041 181.327 156.095 181.327 157.39H178.242C178.242 156.797 178.022 156.306 177.582 155.917C177.142 155.519 176.558 155.32 175.83 155.32C175.153 155.32 174.599 155.477 174.167 155.79C173.744 156.103 173.532 156.522 173.532 157.047C173.532 157.521 173.731 157.889 174.129 158.151C174.527 158.414 175.331 158.68 176.541 158.951C177.751 159.214 178.699 159.531 179.385 159.903C180.079 160.267 180.591 160.707 180.921 161.224C181.259 161.74 181.429 162.366 181.429 163.103C181.429 164.338 180.917 165.341 179.893 166.111C178.868 166.873 177.527 167.254 175.868 167.254C174.743 167.254 173.74 167.051 172.859 166.645C171.979 166.238 171.294 165.68 170.803 164.969C170.312 164.258 170.066 163.492 170.066 162.671H173.062C173.105 163.399 173.38 163.962 173.888 164.359C174.396 164.749 175.068 164.943 175.906 164.943C176.719 164.943 177.337 164.791 177.76 164.486C178.183 164.173 178.395 163.767 178.395 163.268ZM186.689 153.264L186.778 154.851C187.794 153.623 189.127 153.01 190.777 153.01C193.638 153.01 195.094 154.647 195.144 157.923V167H192.059V158.101C192.059 157.229 191.869 156.586 191.488 156.171C191.116 155.748 190.502 155.536 189.647 155.536C188.403 155.536 187.476 156.099 186.867 157.225V167H183.782V153.264H186.689ZM201.281 167H198.196V153.264H201.281V167ZM198.005 149.696C198.005 149.222 198.154 148.829 198.45 148.516C198.754 148.202 199.186 148.046 199.745 148.046C200.303 148.046 200.735 148.202 201.04 148.516C201.344 148.829 201.497 149.222 201.497 149.696C201.497 150.162 201.344 150.551 201.04 150.864C200.735 151.169 200.303 151.321 199.745 151.321C199.186 151.321 198.754 151.169 198.45 150.864C198.154 150.551 198.005 150.162 198.005 149.696ZM212.051 163.268C212.051 162.717 211.823 162.299 211.366 162.011C210.917 161.723 210.168 161.469 209.119 161.249C208.069 161.029 207.193 160.75 206.491 160.411C204.95 159.666 204.18 158.587 204.18 157.174C204.18 155.989 204.679 154.999 205.678 154.203C206.677 153.408 207.946 153.01 209.487 153.01C211.129 153.01 212.453 153.416 213.46 154.229C214.476 155.041 214.984 156.095 214.984 157.39H211.899C211.899 156.797 211.679 156.306 211.239 155.917C210.799 155.519 210.215 155.32 209.487 155.32C208.81 155.32 208.255 155.477 207.824 155.79C207.4 156.103 207.189 156.522 207.189 157.047C207.189 157.521 207.388 157.889 207.786 158.151C208.183 158.414 208.987 158.68 210.198 158.951C211.408 159.214 212.356 159.531 213.041 159.903C213.735 160.267 214.247 160.707 214.578 161.224C214.916 161.74 215.085 162.366 215.085 163.103C215.085 164.338 214.573 165.341 213.549 166.111C212.525 166.873 211.184 167.254 209.525 167.254C208.399 167.254 207.396 167.051 206.516 166.645C205.636 166.238 204.95 165.68 204.459 164.969C203.968 164.258 203.723 163.492 203.723 162.671H206.719C206.761 163.399 207.037 163.962 207.544 164.359C208.052 164.749 208.725 164.943 209.563 164.943C210.375 164.943 210.993 164.791 211.416 164.486C211.84 164.173 212.051 163.767 212.051 163.268Z" fill="#888888"/>
<path d="M110.634 61.8203C105.158 75.4619 114.009 97.1733 128.783 107.1C143.557 117.027 164.19 115.234 175.08 105.883C185.969 96.5328 187.115 79.6249 182.276 66.8158C177.436 54.0708 166.61 45.4247 151.263 43.9516C135.916 42.4786 116.111 48.1786 110.634 61.8203Z" fill="#F7C7C4"/>
<path fill-rule="evenodd" clip-rule="evenodd" d="M169.5 85C169.5 86.6569 168.157 88 166.5 88H160.5H133.5H127.5C125.843 88 124.5 86.6569 124.5 85V79V70V64C124.5 62.3431 125.843 61 127.5 61H133.5H160.5H166.5C168.157 61 169.5 62.3431 169.5 64V70V79V85ZM127.5 80.6905V85H131.809C131.74 84.7293 131.651 84.4633 131.543 84.2039C131.242 83.4759 130.8 82.8145 130.243 82.2574C129.685 81.7002 129.024 81.2583 128.296 80.9567C128.037 80.8493 127.771 80.7604 127.5 80.6905ZM134.874 85C134.762 84.3346 134.574 83.6823 134.315 83.0558C133.863 81.9639 133.2 80.9718 132.364 80.136C131.528 79.3003 130.536 78.6374 129.444 78.1851C128.818 77.9256 128.165 77.7384 127.5 77.6259V71.3741C128.165 71.2616 128.818 71.0744 129.444 70.8149C130.536 70.3626 131.528 69.6997 132.364 68.864C133.2 68.0282 133.863 67.0361 134.315 65.9442C134.574 65.3177 134.762 64.6654 134.874 64H159.126C159.435 65.8305 160.306 67.5339 161.636 68.864C162.966 70.194 164.67 71.0648 166.5 71.3742V77.6258C164.67 77.9352 162.966 78.806 161.636 80.136C160.306 81.4661 159.435 83.1695 159.126 85H134.874ZM166.5 85H162.191C162.456 83.971 162.993 83.0217 163.757 82.2574C164.522 81.493 165.471 80.9562 166.5 80.6905V85ZM131.809 64H127.5V68.3095C127.771 68.2396 128.037 68.1507 128.296 68.0433C129.024 67.7417 129.685 67.2998 130.243 66.7426C130.8 66.1855 131.242 65.5241 131.543 64.7961C131.651 64.5367 131.74 64.2707 131.809 64ZM163.757 66.7426C164.522 67.507 165.471 68.0438 166.5 68.3095V64H162.191C162.456 65.029 162.993 65.9783 163.757 66.7426ZM130.5 93.5C130.5 92.6716 131.172 92 132 92H162C162.828 92 163.5 92.6716 163.5 93.5C163.5 94.3284 162.828 95 162 95H132C131.172 95 130.5 94.3284 130.5 93.5ZM141 74.5C141 71.1863 143.686 68.5 147 68.5C150.314 68.5 153 71.1863 153 74.5C153 77.8137 150.314 80.5 147 80.5C143.686 80.5 141 77.8137 141 74.5ZM147 65.5C142.029 65.5 138 69.5294 138 74.5C138 79.4706 142.029 83.5 147 83.5C151.971 83.5 156 79.4706 156 74.5C156 69.5294 151.971 65.5 147 65.5Z" fill="#888888"/>
<defs>
<filter id="filter0_d_363_11" x="0" y="0" width="394" height="320" filterUnits="userSpaceOnUse" color-interpolation-filters="sRGB">
<feFlood flood-opacity="0" result="BackgroundImageFix"/>
<feColorMatrix in="SourceAlpha" type="matrix" values="0 0 0 0 0 0 0 0 0 0 0 0 0 0 0 0 0 0 127 0" result="hardAlpha"/>
<feOffset dx="50" dy="50"/>
<feGaussianBlur stdDeviation="30"/>
<feColorMatrix type="matrix" values="0 0 0 0 0.333333 0 0 0 0 0.333333 0 0 0 0 0.333333 0 0 0 0.08 0"/>
<feBlend mode="normal" in2="BackgroundImageFix" result="effect1_dropShadow_363_11"/>
<feBlend mode="normal" in="SourceGraphic" in2="effect1_dropShadow_363_11" result="shape"/>
</filter>
</defs>
</svg>
