<svg width="394" height="320" viewBox="0 0 394 320" fill="none" xmlns="http://www.w3.org/2000/svg">
<g filter="url(#filter0_d_363_2)">
<rect x="10" y="10" width="274" height="200" rx="16" fill="#FFFBFB"/>
</g>
<path d="M122.072 46.4329C113.552 52.9895 107.802 64.1252 109.213 73.908C110.624 83.6388 119.302 91.9646 127.822 99.5619C136.29 107.159 144.654 114.028 153.854 114.913C163.054 115.745 173.143 110.542 179.049 102.944C184.956 95.347 186.734 85.304 185.74 76.3017C184.747 67.2994 180.984 59.2338 175.077 52.6772C169.17 46.1727 161.068 41.0731 151.449 39.5121C141.779 37.951 130.593 39.8763 122.072 46.4329Z" fill="#F7C7C4"/>
<path fill-rule="evenodd" clip-rule="evenodd" d="M130 67.0131C130 66.1774 130.677 65.5 131.513 65.5H164.487C165.323 65.5 166 66.1774 166 67.0131V89.4869C166 90.3225 165.323 91 164.487 91H131.513C130.677 91 130 90.3225 130 89.4869V67.0131ZM131.513 62.5C129.021 62.5 127 64.5206 127 67.0131V89.4869C127 90.6449 127.436 91.701 128.153 92.5H125.5C124.672 92.5 124 93.1716 124 94C124 94.8284 124.672 95.5 125.5 95.5H170.5C171.328 95.5 172 94.8284 172 94C172 93.1716 171.328 92.5 170.5 92.5H167.847C168.564 91.701 169 90.6449 169 89.4869V67.0131C169 64.5206 166.979 62.5 164.487 62.5H131.513ZM134.312 72.25C134.312 71.4216 134.984 70.75 135.812 70.75H157.281C158.11 70.75 158.781 71.4216 158.781 72.25C158.781 73.0784 158.11 73.75 157.281 73.75H135.812C134.984 73.75 134.312 73.0784 134.312 72.25ZM135.812 76.75C134.984 76.75 134.312 77.4216 134.312 78.25C134.312 79.0784 134.984 79.75 135.812 79.75H148.375C149.203 79.75 149.875 79.0784 149.875 78.25C149.875 77.4216 149.203 76.75 148.375 76.75H135.812Z" fill="#888888"/>
<path d="M83.4445 159.015L81.3498 161.236V167H78.1379V148.516H81.3498V157.187L83.1272 154.99L88.5354 148.516H92.4201L85.552 156.704L92.8137 167H89.0051L83.4445 159.015ZM99.6611 167.254C97.7061 167.254 96.1191 166.64 94.9004 165.413C93.6901 164.177 93.085 162.535 93.085 160.487V160.106C93.085 158.735 93.3473 157.512 93.8721 156.438C94.4053 155.354 95.1501 154.512 96.1064 153.911C97.0628 153.31 98.1292 153.01 99.3057 153.01C101.176 153.01 102.619 153.606 103.635 154.8C104.659 155.993 105.171 157.682 105.171 159.865V161.109H96.1953C96.2884 162.243 96.665 163.141 97.3252 163.801C97.9938 164.461 98.8317 164.791 99.8389 164.791C101.252 164.791 102.403 164.22 103.292 163.077L104.955 164.664C104.405 165.485 103.669 166.124 102.746 166.581C101.832 167.03 100.804 167.254 99.6611 167.254ZM99.293 155.485C98.4466 155.485 97.7611 155.782 97.2363 156.374C96.7201 156.966 96.39 157.792 96.2461 158.85H102.124V158.621C102.056 157.589 101.781 156.81 101.299 156.285C100.816 155.752 100.148 155.485 99.293 155.485ZM110.558 167H107.473V147.5H110.558V167ZM121.837 167C121.701 166.738 121.583 166.31 121.481 165.718C120.499 166.742 119.297 167.254 117.876 167.254C116.496 167.254 115.37 166.86 114.499 166.073C113.627 165.286 113.191 164.313 113.191 163.153C113.191 161.689 113.733 160.568 114.816 159.789C115.908 159.002 117.465 158.608 119.488 158.608H121.379V157.707C121.379 156.996 121.181 156.429 120.783 156.006C120.385 155.574 119.78 155.358 118.967 155.358C118.265 155.358 117.689 155.536 117.241 155.892C116.792 156.239 116.568 156.683 116.568 157.225H113.483C113.483 156.471 113.733 155.769 114.232 155.117C114.731 154.457 115.408 153.941 116.263 153.568C117.127 153.196 118.087 153.01 119.145 153.01C120.753 153.01 122.035 153.416 122.992 154.229C123.948 155.033 124.439 156.167 124.464 157.631V163.826C124.464 165.062 124.638 166.048 124.985 166.784V167H121.837ZM118.447 164.778C119.056 164.778 119.628 164.63 120.161 164.334C120.702 164.038 121.109 163.64 121.379 163.141V160.551H119.716C118.574 160.551 117.715 160.75 117.139 161.147C116.564 161.545 116.276 162.108 116.276 162.836C116.276 163.428 116.471 163.902 116.86 164.258C117.258 164.605 117.787 164.778 118.447 164.778ZM135.095 163.268C135.095 162.717 134.867 162.299 134.41 162.011C133.961 161.723 133.212 161.469 132.163 161.249C131.113 161.029 130.237 160.75 129.535 160.411C127.994 159.666 127.224 158.587 127.224 157.174C127.224 155.989 127.723 154.999 128.722 154.203C129.721 153.408 130.99 153.01 132.531 153.01C134.173 153.01 135.497 153.416 136.504 154.229C137.52 155.041 138.028 156.095 138.028 157.39H134.943C134.943 156.797 134.723 156.306 134.283 155.917C133.843 155.519 133.259 155.32 132.531 155.32C131.854 155.32 131.299 155.477 130.868 155.79C130.444 156.103 130.233 156.522 130.233 157.047C130.233 157.521 130.432 157.889 130.829 158.151C131.227 158.414 132.031 158.68 133.242 158.951C134.452 159.214 135.4 159.531 136.085 159.903C136.779 160.267 137.291 160.707 137.621 161.224C137.96 161.74 138.129 162.366 138.129 163.103C138.129 164.338 137.617 165.341 136.593 166.111C135.569 166.873 134.228 167.254 132.569 167.254C131.443 167.254 130.44 167.051 129.56 166.645C128.68 166.238 127.994 165.68 127.503 164.969C127.012 164.258 126.767 163.492 126.767 162.671H129.763C129.805 163.399 130.08 163.962 130.588 164.359C131.096 164.749 131.769 164.943 132.607 164.943C133.419 164.943 134.037 164.791 134.46 164.486C134.884 164.173 135.095 163.767 135.095 163.268ZM147 167V148.516H152.459C154.092 148.516 155.54 148.88 156.801 149.607C158.07 150.335 159.052 151.368 159.746 152.705C160.44 154.042 160.787 155.574 160.787 157.301V158.228C160.787 159.979 160.436 161.52 159.733 162.849C159.039 164.177 158.045 165.201 156.75 165.921C155.464 166.64 153.987 167 152.319 167H147ZM150.212 151.105V164.436H152.307C153.991 164.436 155.282 163.911 156.179 162.861C157.084 161.803 157.546 160.288 157.562 158.316V157.288C157.562 155.282 157.127 153.75 156.255 152.692C155.383 151.634 154.118 151.105 152.459 151.105H150.212ZM166.67 167H163.585V153.264H166.67V167ZM163.394 149.696C163.394 149.222 163.542 148.829 163.839 148.516C164.143 148.202 164.575 148.046 165.134 148.046C165.692 148.046 166.124 148.202 166.429 148.516C166.733 148.829 166.886 149.222 166.886 149.696C166.886 150.162 166.733 150.551 166.429 150.864C166.124 151.169 165.692 151.321 165.134 151.321C164.575 151.321 164.143 151.169 163.839 150.864C163.542 150.551 163.394 150.162 163.394 149.696ZM169.201 160.03C169.201 157.897 169.7 156.196 170.699 154.927C171.706 153.649 173.039 153.01 174.698 153.01C176.264 153.01 177.495 153.556 178.392 154.647L178.532 153.264H181.312V166.581C181.312 168.384 180.749 169.806 179.624 170.847C178.506 171.888 176.996 172.408 175.091 172.408C174.084 172.408 173.098 172.197 172.133 171.773C171.177 171.359 170.449 170.813 169.95 170.136L171.41 168.282C172.358 169.408 173.526 169.971 174.914 169.971C175.938 169.971 176.746 169.691 177.338 169.133C177.931 168.583 178.227 167.77 178.227 166.695V165.769C177.338 166.759 176.154 167.254 174.672 167.254C173.064 167.254 171.748 166.615 170.724 165.337C169.709 164.059 169.201 162.29 169.201 160.03ZM172.273 160.297C172.273 161.676 172.552 162.764 173.111 163.56C173.678 164.347 174.461 164.74 175.46 164.74C176.704 164.74 177.626 164.207 178.227 163.141V157.098C177.643 156.057 176.729 155.536 175.485 155.536C174.469 155.536 173.678 155.938 173.111 156.742C172.552 157.546 172.273 158.731 172.273 160.297ZM187.474 167H184.389V153.264H187.474V167ZM184.199 149.696C184.199 149.222 184.347 148.829 184.643 148.516C184.948 148.202 185.379 148.046 185.938 148.046C186.496 148.046 186.928 148.202 187.233 148.516C187.538 148.829 187.69 149.222 187.69 149.696C187.69 150.162 187.538 150.551 187.233 150.864C186.928 151.169 186.496 151.321 185.938 151.321C185.379 151.321 184.948 151.169 184.643 150.864C184.347 150.551 184.199 150.162 184.199 149.696ZM194.41 149.925V153.264H196.835V155.549H194.41V163.217C194.41 163.742 194.512 164.122 194.715 164.359C194.927 164.588 195.299 164.702 195.832 164.702C196.188 164.702 196.547 164.66 196.911 164.575V166.962C196.209 167.157 195.532 167.254 194.88 167.254C192.51 167.254 191.325 165.946 191.325 163.331V155.549H189.066V153.264H191.325V149.925H194.41ZM207.11 167C206.975 166.738 206.856 166.31 206.755 165.718C205.773 166.742 204.571 167.254 203.149 167.254C201.77 167.254 200.644 166.86 199.772 166.073C198.901 165.286 198.465 164.313 198.465 163.153C198.465 161.689 199.007 160.568 200.09 159.789C201.182 159.002 202.739 158.608 204.762 158.608H206.653V157.707C206.653 156.996 206.454 156.429 206.057 156.006C205.659 155.574 205.054 155.358 204.241 155.358C203.539 155.358 202.963 155.536 202.515 155.892C202.066 156.239 201.842 156.683 201.842 157.225H198.757C198.757 156.471 199.007 155.769 199.506 155.117C200.005 154.457 200.682 153.941 201.537 153.568C202.4 153.196 203.361 153.01 204.419 153.01C206.027 153.01 207.309 153.416 208.266 154.229C209.222 155.033 209.713 156.167 209.738 157.631V163.826C209.738 165.062 209.912 166.048 210.259 166.784V167H207.11ZM203.721 164.778C204.33 164.778 204.901 164.63 205.435 164.334C205.976 164.038 206.382 163.64 206.653 163.141V160.551H204.99C203.848 160.551 202.989 160.75 202.413 161.147C201.838 161.545 201.55 162.108 201.55 162.836C201.55 163.428 201.744 163.902 202.134 164.258C202.532 164.605 203.061 164.778 203.721 164.778ZM215.951 167H212.866V147.5H215.951V167Z" fill="#888888"/>
<defs>
<filter id="filter0_d_363_2" x="0" y="0" width="394" height="320" filterUnits="userSpaceOnUse" color-interpolation-filters="sRGB">
<feFlood flood-opacity="0" result="BackgroundImageFix"/>
<feColorMatrix in="SourceAlpha" type="matrix" values="0 0 0 0 0 0 0 0 0 0 0 0 0 0 0 0 0 0 127 0" result="hardAlpha"/>
<feOffset dx="50" dy="50"/>
<feGaussianBlur stdDeviation="30"/>
<feColorMatrix type="matrix" values="0 0 0 0 0.333333 0 0 0 0 0.333333 0 0 0 0 0.333333 0 0 0 0.08 0"/>
<feBlend mode="normal" in2="BackgroundImageFix" result="effect1_dropShadow_363_2"/>
<feBlend mode="normal" in="SourceGraphic" in2="effect1_dropShadow_363_2" result="shape"/>
</filter>
</defs>
</svg>
