<svg width="394" height="320" viewBox="0 0 394 320" fill="none" xmlns="http://www.w3.org/2000/svg">
<g filter="url(#filter0_d_363_23)">
<rect x="10" y="10" width="274" height="200" rx="16" fill="#FFFBFB"/>
</g>
<path d="M183.366 61.8203C188.842 75.4619 179.991 97.1733 165.217 107.1C150.443 117.027 129.81 115.234 118.92 105.883C108.031 96.5328 106.885 79.6249 111.724 66.8158C116.564 54.0708 127.39 45.4247 142.737 43.9516C158.084 42.4786 177.889 48.1786 183.366 61.8203Z" fill="#F7C7C4"/>
<path d="M65.5648 159.015L63.4701 161.236V167H60.2582V148.516H63.4701V157.187L65.2475 154.99L70.6557 148.516H74.5404L67.6723 156.704L74.934 167H71.1254L65.5648 159.015ZM81.7814 167.254C79.8264 167.254 78.2395 166.64 77.0207 165.413C75.8104 164.177 75.2053 162.535 75.2053 160.487V160.106C75.2053 158.735 75.4676 157.512 75.9924 156.438C76.5256 155.354 77.2704 154.512 78.2268 153.911C79.1831 153.31 80.2495 153.01 81.426 153.01C83.2964 153.01 84.7395 153.606 85.7551 154.8C86.7792 155.993 87.2912 157.682 87.2912 159.865V161.109H78.3156C78.4087 162.243 78.7854 163.141 79.4455 163.801C80.1141 164.461 80.952 164.791 81.9592 164.791C83.3726 164.791 84.5236 164.22 85.4123 163.077L87.0754 164.664C86.5253 165.485 85.7889 166.124 84.8664 166.581C83.9523 167.03 82.924 167.254 81.7814 167.254ZM81.4133 155.485C80.5669 155.485 79.8814 155.782 79.3566 156.374C78.8404 156.966 78.5103 157.792 78.3664 158.85H84.2443V158.621C84.1766 157.589 83.9016 156.81 83.4191 156.285C82.9367 155.752 82.2681 155.485 81.4133 155.485ZM92.6787 167H89.5938V147.5H92.6787V167ZM103.957 167C103.821 166.738 103.703 166.31 103.601 165.718C102.62 166.742 101.418 167.254 99.9959 167.254C98.6163 167.254 97.4907 166.86 96.6189 166.073C95.7472 165.286 95.3113 164.313 95.3113 163.153C95.3113 161.689 95.853 160.568 96.9363 159.789C98.0281 159.002 99.5854 158.608 101.608 158.608H103.5V157.707C103.5 156.996 103.301 156.429 102.903 156.006C102.505 155.574 101.9 155.358 101.088 155.358C100.385 155.358 99.8097 155.536 99.3611 155.892C98.9126 156.239 98.6883 156.683 98.6883 157.225H95.6033C95.6033 156.471 95.853 155.769 96.3523 155.117C96.8517 154.457 97.5288 153.941 98.3836 153.568C99.2469 153.196 100.207 153.01 101.265 153.01C102.873 153.01 104.156 153.416 105.112 154.229C106.068 155.033 106.559 156.167 106.585 157.631V163.826C106.585 165.062 106.758 166.048 107.105 166.784V167H103.957ZM100.567 164.778C101.177 164.778 101.748 164.63 102.281 164.334C102.823 164.038 103.229 163.64 103.5 163.141V160.551H101.837C100.694 160.551 99.8351 160.75 99.2596 161.147C98.684 161.545 98.3963 162.108 98.3963 162.836C98.3963 163.428 98.5909 163.902 98.9803 164.258C99.3781 164.605 99.907 164.778 100.567 164.778ZM117.215 163.268C117.215 162.717 116.987 162.299 116.53 162.011C116.081 161.723 115.332 161.469 114.283 161.249C113.233 161.029 112.357 160.75 111.655 160.411C110.115 159.666 109.344 158.587 109.344 157.174C109.344 155.989 109.844 154.999 110.842 154.203C111.841 153.408 113.111 153.01 114.651 153.01C116.293 153.01 117.617 153.416 118.625 154.229C119.64 155.041 120.148 156.095 120.148 157.39H117.063C117.063 156.797 116.843 156.306 116.403 155.917C115.963 155.519 115.379 155.32 114.651 155.32C113.974 155.32 113.42 155.477 112.988 155.79C112.565 156.103 112.353 156.522 112.353 157.047C112.353 157.521 112.552 157.889 112.95 158.151C113.348 158.414 114.152 158.68 115.362 158.951C116.572 159.214 117.52 159.531 118.206 159.903C118.9 160.267 119.412 160.707 119.742 161.224C120.08 161.74 120.25 162.366 120.25 163.103C120.25 164.338 119.738 165.341 118.713 166.111C117.689 166.873 116.348 167.254 114.689 167.254C113.563 167.254 112.56 167.051 111.68 166.645C110.8 166.238 110.115 165.68 109.624 164.969C109.133 164.258 108.887 163.492 108.887 162.671H111.883C111.926 163.399 112.201 163.962 112.709 164.359C113.216 164.749 113.889 164.943 114.727 164.943C115.54 164.943 116.157 164.791 116.581 164.486C117.004 164.173 117.215 163.767 117.215 163.268ZM138.781 162.239C138.781 161.427 138.494 160.8 137.918 160.36C137.351 159.92 136.323 159.476 134.833 159.027C133.344 158.579 132.159 158.079 131.279 157.529C129.594 156.471 128.752 155.092 128.752 153.391C128.752 151.901 129.357 150.674 130.568 149.709C131.786 148.744 133.365 148.262 135.303 148.262C136.589 148.262 137.736 148.499 138.743 148.973C139.751 149.447 140.542 150.124 141.117 151.004C141.693 151.876 141.981 152.845 141.981 153.911H138.781C138.781 152.946 138.477 152.193 137.867 151.651C137.266 151.101 136.403 150.826 135.278 150.826C134.228 150.826 133.411 151.05 132.827 151.499C132.252 151.948 131.964 152.574 131.964 153.378C131.964 154.055 132.277 154.622 132.904 155.079C133.53 155.528 134.562 155.968 136.001 156.399C137.44 156.823 138.595 157.309 139.467 157.859C140.339 158.401 140.978 159.027 141.384 159.738C141.79 160.441 141.993 161.266 141.993 162.214C141.993 163.754 141.401 164.981 140.216 165.896C139.04 166.801 137.44 167.254 135.417 167.254C134.08 167.254 132.848 167.008 131.723 166.518C130.606 166.018 129.734 165.333 129.108 164.461C128.49 163.589 128.181 162.574 128.181 161.414H131.393C131.393 162.464 131.74 163.276 132.434 163.852C133.128 164.427 134.122 164.715 135.417 164.715C136.534 164.715 137.372 164.491 137.931 164.042C138.498 163.585 138.781 162.984 138.781 162.239ZM148.676 161.109L147.305 162.519V167H144.22V147.5H147.305V158.748L148.27 157.542L152.065 153.264H155.772L150.669 158.989L156.318 167H152.751L148.676 161.109ZM160.779 167H157.694V153.264H160.779V167ZM157.504 149.696C157.504 149.222 157.652 148.829 157.948 148.516C158.253 148.202 158.684 148.046 159.243 148.046C159.802 148.046 160.233 148.202 160.538 148.516C160.843 148.829 160.995 149.222 160.995 149.696C160.995 150.162 160.843 150.551 160.538 150.864C160.233 151.169 159.802 151.321 159.243 151.321C158.684 151.321 158.253 151.169 157.948 150.864C157.652 150.551 157.504 150.162 157.504 149.696ZM166.712 153.264L166.801 154.851C167.817 153.623 169.15 153.01 170.8 153.01C173.661 153.01 175.117 154.647 175.168 157.923V167H172.083V158.101C172.083 157.229 171.892 156.586 171.511 156.171C171.139 155.748 170.525 155.536 169.671 155.536C168.426 155.536 167.5 156.099 166.89 157.225V167H163.805V153.264H166.712ZM198.6 160.982C198.414 162.954 197.686 164.495 196.416 165.604C195.147 166.704 193.458 167.254 191.351 167.254C189.878 167.254 188.579 166.907 187.453 166.213C186.336 165.51 185.473 164.516 184.863 163.229C184.254 161.943 183.937 160.449 183.911 158.748V157.021C183.911 155.278 184.22 153.742 184.838 152.413C185.456 151.084 186.34 150.06 187.491 149.341C188.651 148.621 189.988 148.262 191.503 148.262C193.543 148.262 195.185 148.816 196.429 149.925C197.673 151.034 198.397 152.599 198.6 154.622H195.401C195.248 153.293 194.859 152.337 194.233 151.753C193.615 151.16 192.705 150.864 191.503 150.864C190.107 150.864 189.032 151.376 188.279 152.4C187.534 153.416 187.153 154.91 187.136 156.882V158.52C187.136 160.517 187.491 162.04 188.202 163.09C188.922 164.139 189.971 164.664 191.351 164.664C192.612 164.664 193.56 164.381 194.195 163.813C194.829 163.246 195.231 162.303 195.401 160.982H198.6ZM209.091 167C208.955 166.738 208.837 166.31 208.735 165.718C207.754 166.742 206.552 167.254 205.13 167.254C203.75 167.254 202.625 166.86 201.753 166.073C200.881 165.286 200.445 164.313 200.445 163.153C200.445 161.689 200.987 160.568 202.07 159.789C203.162 159.002 204.719 158.608 206.742 158.608H208.634V157.707C208.634 156.996 208.435 156.429 208.037 156.006C207.639 155.574 207.034 155.358 206.222 155.358C205.519 155.358 204.944 155.536 204.495 155.892C204.047 156.239 203.822 156.683 203.822 157.225H200.737C200.737 156.471 200.987 155.769 201.486 155.117C201.986 154.457 202.663 153.941 203.518 153.568C204.381 153.196 205.341 153.01 206.399 153.01C208.007 153.01 209.29 153.416 210.246 154.229C211.202 155.033 211.693 156.167 211.719 157.631V163.826C211.719 165.062 211.892 166.048 212.239 166.784V167H209.091ZM205.701 164.778C206.311 164.778 206.882 164.63 207.415 164.334C207.957 164.038 208.363 163.64 208.634 163.141V160.551H206.971C205.828 160.551 204.969 160.75 204.394 161.147C203.818 161.545 203.53 162.108 203.53 162.836C203.53 163.428 203.725 163.902 204.114 164.258C204.512 164.605 205.041 164.778 205.701 164.778ZM221.842 156.082C221.435 156.014 221.016 155.98 220.585 155.98C219.171 155.98 218.219 156.522 217.728 157.605V167H214.643V153.264H217.589L217.665 154.8C218.41 153.606 219.442 153.01 220.763 153.01C221.203 153.01 221.567 153.069 221.854 153.188L221.842 156.082ZM229.286 167.254C227.331 167.254 225.744 166.64 224.525 165.413C223.315 164.177 222.71 162.535 222.71 160.487V160.106C222.71 158.735 222.972 157.512 223.497 156.438C224.03 155.354 224.775 154.512 225.731 153.911C226.687 153.31 227.754 153.01 228.93 153.01C230.801 153.01 232.244 153.606 233.259 154.8C234.283 155.993 234.796 157.682 234.796 159.865V161.109H225.82C225.913 162.243 226.29 163.141 226.95 163.801C227.618 164.461 228.456 164.791 229.463 164.791C230.877 164.791 232.028 164.22 232.917 163.077L234.58 164.664C234.03 165.485 233.293 166.124 232.371 166.581C231.457 167.03 230.428 167.254 229.286 167.254ZM228.918 155.485C228.071 155.485 227.386 155.782 226.861 156.374C226.345 156.966 226.015 157.792 225.871 158.85H231.749V158.621C231.681 157.589 231.406 156.81 230.923 156.285C230.441 155.752 229.772 155.485 228.918 155.485Z" fill="#888888"/>
<path fill-rule="evenodd" clip-rule="evenodd" d="M142.5 57C142.035 57 141.597 57.2155 141.313 57.5834C141.029 57.9513 140.931 58.4301 141.049 58.8797C142.183 63.2121 140.3 66.9016 137.721 70.934C137.432 71.3859 137.132 71.8448 136.829 72.3094C135.826 73.8472 134.782 75.4469 133.945 77.0557C132.84 79.1788 132 81.4827 132 84C132 87.9782 133.58 91.7936 136.393 94.6066C139.206 97.4196 143.022 99 147 99C150.978 99 154.794 97.4196 157.607 94.6066C160.42 91.7936 162 87.9782 162 84C162 75.3744 158.907 68.6548 154.955 64.0817C151.067 59.5825 146.188 57 142.5 57ZM140.248 72.5504C142.493 69.0394 144.769 65.019 144.332 60.2733C146.76 60.9351 149.893 62.8119 152.685 66.0433C156.187 70.0952 159 76.1256 159 84C159 87.1826 157.736 90.2348 155.485 92.4853C154.713 93.258 153.845 93.9144 152.911 94.4433C153.93 92.9555 154.5 90.9682 154.5 88.5C154.5 85.3758 153.064 82.0657 151.173 79.5662C150.217 78.3025 149.102 77.1871 147.913 76.3755C146.739 75.5736 145.391 75 144 75C143.553 75 143.129 75.1993 142.844 75.5437C142.559 75.8881 142.443 76.3416 142.526 76.7807C142.798 78.2077 142.293 79.4234 141.419 81.3201L141.375 81.4149C140.542 83.2224 139.5 85.4832 139.5 88.5C139.5 90.9682 140.07 92.9555 141.089 94.4433C140.155 93.9144 139.287 93.258 138.515 92.4853C136.264 90.2348 135 87.1826 135 84C135 82.158 135.613 80.3486 136.606 78.4404C137.368 76.9754 138.299 75.5485 139.284 74.0383L139.284 74.038C139.601 73.5521 139.924 73.0576 140.248 72.5504ZM144.196 82.462C144.743 81.2746 145.356 79.9469 145.542 78.4435C145.759 78.5561 145.986 78.6919 146.221 78.8528C147.09 79.4459 147.978 80.316 148.78 81.3761C150.405 83.524 151.5 86.2138 151.5 88.5C151.5 90.9295 150.831 92.4003 150.031 93.2524C149.232 94.1044 148.151 94.5 147 94.5C145.849 94.5 144.768 94.1044 143.969 93.2524C143.169 92.4003 142.5 90.9295 142.5 88.5C142.5 86.1595 143.296 84.4152 144.144 82.5753L144.196 82.462Z" fill="#888888"/>
<defs>
<filter id="filter0_d_363_23" x="0" y="0" width="394" height="320" filterUnits="userSpaceOnUse" color-interpolation-filters="sRGB">
<feFlood flood-opacity="0" result="BackgroundImageFix"/>
<feColorMatrix in="SourceAlpha" type="matrix" values="0 0 0 0 0 0 0 0 0 0 0 0 0 0 0 0 0 0 127 0" result="hardAlpha"/>
<feOffset dx="50" dy="50"/>
<feGaussianBlur stdDeviation="30"/>
<feColorMatrix type="matrix" values="0 0 0 0 0.333333 0 0 0 0 0.333333 0 0 0 0 0.333333 0 0 0 0.08 0"/>
<feBlend mode="normal" in2="BackgroundImageFix" result="effect1_dropShadow_363_23"/>
<feBlend mode="normal" in="SourceGraphic" in2="effect1_dropShadow_363_23" result="shape"/>
</filter>
</defs>
</svg>
