<svg width="384" height="320" viewBox="0 0 384 320" fill="none" xmlns="http://www.w3.org/2000/svg">
<g filter="url(#filter0_d_363_35)">
<rect x="10" y="10" width="274" height="200" rx="16" fill="#FFFBFB"/>
</g>
<path d="M170.43 53.009C176.701 59.522 181.546 66.4629 182.876 74.0693C184.206 81.6282 181.974 89.8526 178.078 97.5541C174.23 105.256 168.672 112.482 161.356 115.382C154.041 118.282 144.967 116.903 135.704 114.241C126.488 111.578 117.082 107.68 112.616 100.644C108.151 93.5607 108.626 83.3396 111.238 74.3545C113.804 65.3219 118.554 57.5729 125.157 51.1074C131.761 44.6895 140.264 39.5552 148.34 40.0306C156.416 40.506 164.112 46.5436 170.43 53.009Z" fill="#F7C7C4"/>
<path d="M40.9947 160.132V167H37.7828V148.516H44.8541C46.9192 148.516 48.5569 149.053 49.7672 150.128C50.9859 151.203 51.5953 152.625 51.5953 154.394C51.5953 156.205 50.9986 157.614 49.8053 158.621C48.6204 159.628 46.9573 160.132 44.816 160.132H40.9947ZM40.9947 157.555H44.8541C45.9967 157.555 46.8684 157.288 47.4693 156.755C48.0702 156.213 48.3707 155.435 48.3707 154.419C48.3707 153.42 48.066 152.625 47.4566 152.032C46.8473 151.431 46.0094 151.122 44.943 151.105H40.9947V157.555ZM61.0072 156.082C60.601 156.014 60.182 155.98 59.7504 155.98C58.337 155.98 57.3848 156.522 56.8939 157.605V167H53.809V153.264H56.7543L56.8305 154.8C57.5753 153.606 58.6078 153.01 59.9281 153.01C60.3682 153.01 60.7322 153.069 61.0199 153.188L61.0072 156.082ZM61.6213 160.005C61.6213 158.659 61.8879 157.449 62.4211 156.374C62.9543 155.291 63.7033 154.461 64.6682 153.886C65.633 153.302 66.7417 153.01 67.9943 153.01C69.8479 153.01 71.3501 153.606 72.5012 154.8C73.6607 155.993 74.287 157.576 74.3801 159.548L74.3928 160.271C74.3928 161.626 74.1304 162.836 73.6057 163.902C73.0894 164.969 72.3446 165.794 71.3713 166.378C70.4064 166.962 69.2893 167.254 68.0197 167.254C66.0816 167.254 64.5285 166.611 63.3605 165.324C62.201 164.029 61.6213 162.307 61.6213 160.157V160.005ZM64.7063 160.271C64.7063 161.685 64.9982 162.794 65.5822 163.598C66.1662 164.393 66.9787 164.791 68.0197 164.791C69.0607 164.791 69.869 164.385 70.4445 163.572C71.0285 162.76 71.3205 161.571 71.3205 160.005C71.3205 158.617 71.0201 157.517 70.4191 156.704C69.8267 155.892 69.0184 155.485 67.9943 155.485C66.9872 155.485 66.1874 155.887 65.5949 156.691C65.0025 157.487 64.7063 158.68 64.7063 160.271ZM76.124 160.03C76.124 157.914 76.6149 156.217 77.5967 154.939C78.5785 153.653 79.8945 153.01 81.5449 153.01C83.0007 153.01 84.1771 153.518 85.0742 154.533V147.5H88.1592V167H85.3662L85.2139 165.578C84.2913 166.695 83.0599 167.254 81.5195 167.254C79.9115 167.254 78.6081 166.606 77.6094 165.312C76.6191 164.017 76.124 162.256 76.124 160.03ZM79.209 160.297C79.209 161.693 79.4756 162.785 80.0088 163.572C80.5505 164.351 81.3164 164.74 82.3066 164.74C83.5677 164.74 84.4902 164.177 85.0742 163.052V157.187C84.5072 156.086 83.5931 155.536 82.332 155.536C81.3333 155.536 80.5632 155.934 80.0215 156.729C79.4798 157.517 79.209 158.706 79.209 160.297ZM99.3992 165.654C98.4936 166.721 97.2072 167.254 95.5398 167.254C94.0503 167.254 92.9204 166.818 92.1502 165.946C91.3885 165.075 91.0076 163.813 91.0076 162.163V153.264H94.0926V162.125C94.0926 163.868 94.8162 164.74 96.2635 164.74C97.7615 164.74 98.7729 164.203 99.2977 163.128V153.264H102.383V167H99.4754L99.3992 165.654ZM110.868 164.791C111.638 164.791 112.277 164.567 112.785 164.118C113.293 163.67 113.563 163.115 113.597 162.455H116.504C116.471 163.31 116.204 164.11 115.705 164.854C115.205 165.591 114.528 166.175 113.673 166.606C112.819 167.038 111.896 167.254 110.906 167.254C108.985 167.254 107.461 166.632 106.336 165.388C105.21 164.144 104.647 162.425 104.647 160.233V159.916C104.647 157.826 105.206 156.154 106.323 154.901C107.44 153.64 108.963 153.01 110.893 153.01C112.527 153.01 113.855 153.488 114.879 154.444C115.912 155.392 116.454 156.641 116.504 158.189H113.597C113.563 157.402 113.293 156.755 112.785 156.247C112.285 155.739 111.646 155.485 110.868 155.485C109.869 155.485 109.099 155.849 108.557 156.577C108.016 157.297 107.74 158.393 107.732 159.865V160.36C107.732 161.85 107.999 162.963 108.532 163.699C109.074 164.427 109.852 164.791 110.868 164.791ZM122.4 149.925V153.264H124.825V155.549H122.4V163.217C122.4 163.742 122.501 164.122 122.704 164.359C122.916 164.588 123.288 164.702 123.822 164.702C124.177 164.702 124.537 164.66 124.901 164.575V166.962C124.198 167.157 123.521 167.254 122.87 167.254C120.5 167.254 119.315 165.946 119.315 163.331V155.549H117.055V153.264H119.315V149.925H122.4ZM138.672 159.015L136.577 161.236V167H133.365V148.516H136.577V157.187L138.354 154.99L143.763 148.516H147.647L140.779 156.704L148.041 167H144.232L138.672 159.015ZM152.032 153.264L152.121 154.851C153.137 153.623 154.47 153.01 156.12 153.01C158.981 153.01 160.436 154.647 160.487 157.923V167H157.402V158.101C157.402 157.229 157.212 156.586 156.831 156.171C156.458 155.748 155.845 155.536 154.99 155.536C153.746 155.536 152.819 156.099 152.21 157.225V167H149.125V153.264H152.032ZM162.764 160.005C162.764 158.659 163.031 157.449 163.564 156.374C164.097 155.291 164.846 154.461 165.811 153.886C166.776 153.302 167.885 153.01 169.137 153.01C170.991 153.01 172.493 153.606 173.644 154.8C174.804 155.993 175.43 157.576 175.523 159.548L175.536 160.271C175.536 161.626 175.273 162.836 174.749 163.902C174.232 164.969 173.488 165.794 172.514 166.378C171.549 166.962 170.432 167.254 169.163 167.254C167.225 167.254 165.671 166.611 164.504 165.324C163.344 164.029 162.764 162.307 162.764 160.157V160.005ZM165.849 160.271C165.849 161.685 166.141 162.794 166.725 163.598C167.309 164.393 168.122 164.791 169.163 164.791C170.204 164.791 171.012 164.385 171.587 163.572C172.171 162.76 172.463 161.571 172.463 160.005C172.463 158.617 172.163 157.517 171.562 156.704C170.97 155.892 170.161 155.485 169.137 155.485C168.13 155.485 167.33 155.887 166.738 156.691C166.145 157.487 165.849 158.68 165.849 160.271ZM189.912 162.747L192.095 153.264H195.104L191.359 167H188.82L185.874 157.567L182.98 167H180.441L176.683 153.264H179.692L181.913 162.646L184.732 153.264H187.055L189.912 162.747ZM200.149 167H197.064V147.5H200.149V167ZM209.269 167.254C207.313 167.254 205.727 166.64 204.508 165.413C203.298 164.177 202.692 162.535 202.692 160.487V160.106C202.692 158.735 202.955 157.512 203.479 156.438C204.013 155.354 204.757 154.512 205.714 153.911C206.67 153.31 207.737 153.01 208.913 153.01C210.784 153.01 212.227 153.606 213.242 154.8C214.266 155.993 214.778 157.682 214.778 159.865V161.109H205.803C205.896 162.243 206.272 163.141 206.933 163.801C207.601 164.461 208.439 164.791 209.446 164.791C210.86 164.791 212.011 164.22 212.899 163.077L214.562 164.664C214.012 165.485 213.276 166.124 212.354 166.581C211.439 167.03 210.411 167.254 209.269 167.254ZM208.9 155.485C208.054 155.485 207.368 155.782 206.844 156.374C206.327 156.966 205.997 157.792 205.854 158.85H211.731V158.621C211.664 157.589 211.389 156.81 210.906 156.285C210.424 155.752 209.755 155.485 208.9 155.485ZM216.306 160.03C216.306 157.914 216.797 156.217 217.779 154.939C218.761 153.653 220.077 153.01 221.727 153.01C223.183 153.01 224.36 153.518 225.257 154.533V147.5H228.342V167H225.549L225.396 165.578C224.474 166.695 223.242 167.254 221.702 167.254C220.094 167.254 218.791 166.606 217.792 165.312C216.802 164.017 216.306 162.256 216.306 160.03ZM219.391 160.297C219.391 161.693 219.658 162.785 220.191 163.572C220.733 164.351 221.499 164.74 222.489 164.74C223.75 164.74 224.673 164.177 225.257 163.052V157.187C224.69 156.086 223.776 155.536 222.514 155.536C221.516 155.536 220.746 155.934 220.204 156.729C219.662 157.517 219.391 158.706 219.391 160.297ZM230.72 160.03C230.72 157.897 231.22 156.196 232.218 154.927C233.226 153.649 234.559 153.01 236.217 153.01C237.783 153.01 239.015 153.556 239.912 154.647L240.051 153.264H242.832V166.581C242.832 168.384 242.269 169.806 241.143 170.847C240.026 171.888 238.515 172.408 236.611 172.408C235.604 172.408 234.618 172.197 233.653 171.773C232.697 171.359 231.969 170.813 231.469 170.136L232.929 168.282C233.877 169.408 235.045 169.971 236.433 169.971C237.457 169.971 238.266 169.691 238.858 169.133C239.45 168.583 239.747 167.77 239.747 166.695V165.769C238.858 166.759 237.673 167.254 236.192 167.254C234.584 167.254 233.268 166.615 232.244 165.337C231.228 164.059 230.72 162.29 230.72 160.03ZM233.793 160.297C233.793 161.676 234.072 162.764 234.63 163.56C235.198 164.347 235.98 164.74 236.979 164.74C238.223 164.74 239.146 164.207 239.747 163.141V157.098C239.163 156.057 238.249 155.536 237.004 155.536C235.989 155.536 235.198 155.938 234.63 156.742C234.072 157.546 233.793 158.731 233.793 160.297ZM251.761 167.254C249.806 167.254 248.219 166.64 247 165.413C245.79 164.177 245.185 162.535 245.185 160.487V160.106C245.185 158.735 245.447 157.512 245.972 156.438C246.505 155.354 247.25 154.512 248.206 153.911C249.163 153.31 250.229 153.01 251.406 153.01C253.276 153.01 254.719 153.606 255.735 154.8C256.759 155.993 257.271 157.682 257.271 159.865V161.109H248.295C248.388 162.243 248.765 163.141 249.425 163.801C250.094 164.461 250.932 164.791 251.939 164.791C253.352 164.791 254.503 164.22 255.392 163.077L257.055 164.664C256.505 165.485 255.769 166.124 254.846 166.581C253.932 167.03 252.904 167.254 251.761 167.254ZM251.393 155.485C250.547 155.485 249.861 155.782 249.336 156.374C248.82 156.966 248.49 157.792 248.346 158.85H254.224V158.621C254.156 157.589 253.881 156.81 253.399 156.285C252.916 155.752 252.248 155.485 251.393 155.485Z" fill="#888888"/>
<path fill-rule="evenodd" clip-rule="evenodd" d="M135 60C133.508 60 132.138 60.4059 131.053 61.3072C129.973 62.2049 129.316 63.477 129.03 64.9532L126.039 79.16C126.013 79.2693 126 79.3831 126 79.5V90L126 90.0044C126.005 91.5931 126.638 93.1154 127.761 94.2388C128.885 95.3622 130.407 95.9954 131.996 96L132 96H162L162.004 96C163.593 95.9954 165.115 95.3622 166.239 94.2388C167.362 93.1154 167.995 91.5931 168 90.0044L168 90V79.5C168 79.3831 167.987 79.2693 167.961 79.1601L164.971 64.958C164.683 63.4183 163.993 62.14 162.892 61.2562C161.794 60.3746 160.431 60 159 60H135ZM153 78H164.651L162.032 65.559C162.03 65.5471 162.027 65.5351 162.025 65.5231C161.843 64.54 161.456 63.9501 161.014 63.5954C160.565 63.2348 159.913 63 159 63H135C134.054 63 133.409 63.2504 132.97 63.6147C132.531 63.9798 132.157 64.5777 131.973 65.5333L131.968 65.559L129.349 78H141C141.828 78 142.5 78.6716 142.5 79.5C142.5 80.6935 142.974 81.8381 143.818 82.682C144.662 83.5259 145.807 84 147 84C148.193 84 149.338 83.5259 150.182 82.682C151.026 81.8381 151.5 80.6935 151.5 79.5C151.5 78.6716 152.172 78 153 78ZM154.348 81C154.057 82.4302 153.351 83.7557 152.303 84.8033C150.897 86.2098 148.989 87 147 87C145.011 87 143.103 86.2098 141.697 84.8033C140.649 83.7557 139.943 82.4302 139.652 81H129V89.9976C129.003 90.793 129.32 91.555 129.883 92.1175C130.445 92.68 131.207 92.9972 132.003 93H161.997C162.793 92.9972 163.555 92.68 164.117 92.1175C164.68 91.555 164.997 90.7929 165 89.9974V81H154.348ZM135 67.5C135 66.6716 135.672 66 136.5 66H157.5C158.328 66 159 66.6716 159 67.5C159 68.3284 158.328 69 157.5 69H136.5C135.672 69 135 68.3284 135 67.5ZM135 72C134.172 72 133.5 72.6716 133.5 73.5C133.5 74.3284 134.172 75 135 75H159C159.828 75 160.5 74.3284 160.5 73.5C160.5 72.6716 159.828 72 159 72H135Z" fill="#888888"/>
<defs>
<filter id="filter0_d_363_35" x="0" y="0" width="394" height="320" filterUnits="userSpaceOnUse" color-interpolation-filters="sRGB">
<feFlood flood-opacity="0" result="BackgroundImageFix"/>
<feColorMatrix in="SourceAlpha" type="matrix" values="0 0 0 0 0 0 0 0 0 0 0 0 0 0 0 0 0 0 127 0" result="hardAlpha"/>
<feOffset dx="50" dy="50"/>
<feGaussianBlur stdDeviation="30"/>
<feColorMatrix type="matrix" values="0 0 0 0 0.333333 0 0 0 0 0.333333 0 0 0 0 0.333333 0 0 0 0.08 0"/>
<feBlend mode="normal" in2="BackgroundImageFix" result="effect1_dropShadow_363_35"/>
<feBlend mode="normal" in="SourceGraphic" in2="effect1_dropShadow_363_35" result="shape"/>
</filter>
</defs>
</svg>
