<svg width="109" height="122" viewBox="0 0 109 122" fill="none" xmlns="http://www.w3.org/2000/svg">
<g opacity="0.5">
<circle cx="3" cy="67" r="3" fill="#EE9591"/>
<circle cx="3" cy="80" r="3" fill="#EE9591"/>
<circle cx="3" cy="93" r="3" fill="#EE9591"/>
<circle cx="3" cy="106" r="3" fill="#EE9591"/>
<circle cx="3" cy="119" r="3" fill="#EE9591"/>
<circle cx="16" cy="67" r="3" fill="#EE9591"/>
<circle cx="16" cy="80" r="3" fill="#EE9591"/>
<circle cx="16" cy="93" r="3" fill="#EE9591"/>
<circle cx="16" cy="106" r="3" fill="#EE9591"/>
<circle cx="16" cy="119" r="3" fill="#EE9591"/>
<circle cx="29" cy="67" r="3" fill="#EE9591"/>
<circle cx="29" cy="80" r="3" fill="#EE9591"/>
<circle cx="29" cy="93" r="3" fill="#EE9591"/>
<circle cx="29" cy="106" r="3" fill="#EE9591"/>
<circle cx="29" cy="119" r="3" fill="#EE9591"/>
<circle cx="42" cy="67" r="3" fill="#EE9591"/>
<circle cx="42" cy="80" r="3" fill="#EE9591"/>
<circle cx="42" cy="93" r="3" fill="#EE9591"/>
<circle cx="42" cy="106" r="3" fill="#EE9591"/>
<circle cx="42" cy="119" r="3" fill="#EE9591"/>
<circle cx="54" cy="3" r="3" fill="#EE9591"/>
<circle cx="54" cy="16" r="3" fill="#EE9591"/>
<circle cx="54" cy="29" r="3" fill="#EE9591"/>
<circle cx="54" cy="42" r="3" fill="#EE9591"/>
<circle cx="54" cy="54" r="3" fill="#EE9591"/>
<circle cx="54" cy="67" r="3" fill="#EE9591"/>
<circle cx="54" cy="80" r="3" fill="#EE9591"/>
<circle cx="54" cy="93" r="3" fill="#EE9591"/>
<circle cx="54" cy="106" r="3" fill="#EE9591"/>
<circle cx="54" cy="119" r="3" fill="#EE9591"/>
<circle cx="67" cy="3" r="3" fill="#EE9591"/>
<circle cx="67" cy="16" r="3" fill="#EE9591"/>
<circle cx="67" cy="29" r="3" fill="#EE9591"/>
<circle cx="67" cy="42" r="3" fill="#EE9591"/>
<circle cx="67" cy="54" r="3" fill="#EE9591"/>
<circle cx="67" cy="67" r="3" fill="#EE9591"/>
<circle cx="67" cy="80" r="3" fill="#EE9591"/>
<circle cx="67" cy="93" r="3" fill="#EE9591"/>
<circle cx="67" cy="106" r="3" fill="#EE9591"/>
<circle cx="67" cy="119" r="3" fill="#EE9591"/>
<circle cx="80" cy="3" r="3" fill="#EE9591"/>
<circle cx="80" cy="16" r="3" fill="#EE9591"/>
<circle cx="80" cy="29" r="3" fill="#EE9591"/>
<circle cx="80" cy="42" r="3" fill="#EE9591"/>
<circle cx="80" cy="54" r="3" fill="#EE9591"/>
<circle cx="80" cy="67" r="3" fill="#EE9591"/>
<circle cx="80" cy="80" r="3" fill="#EE9591"/>
<circle cx="80" cy="93" r="3" fill="#EE9591"/>
<circle cx="80" cy="106" r="3" fill="#EE9591"/>
<circle cx="80" cy="119" r="3" fill="#EE9591"/>
<circle cx="93" cy="3" r="3" fill="#EE9591"/>
<circle cx="93" cy="16" r="3" fill="#EE9591"/>
<circle cx="93" cy="29" r="3" fill="#EE9591"/>
<circle cx="93" cy="42" r="3" fill="#EE9591"/>
<circle cx="93" cy="54" r="3" fill="#EE9591"/>
<circle cx="93" cy="67" r="3" fill="#EE9591"/>
<circle cx="93" cy="80" r="3" fill="#EE9591"/>
<circle cx="93" cy="93" r="3" fill="#EE9591"/>
<circle cx="93" cy="106" r="3" fill="#EE9591"/>
<circle cx="93" cy="119" r="3" fill="#EE9591"/>
<circle cx="106" cy="3" r="3" fill="#EE9591"/>
<circle cx="106" cy="16" r="3" fill="#EE9591"/>
<circle cx="106" cy="29" r="3" fill="#EE9591"/>
<circle cx="106" cy="42" r="3" fill="#EE9591"/>
<circle cx="106" cy="54" r="3" fill="#EE9591"/>
<circle cx="106" cy="67" r="3" fill="#EE9591"/>
<circle cx="106" cy="80" r="3" fill="#EE9591"/>
<circle cx="106" cy="93" r="3" fill="#EE9591"/>
<circle cx="106" cy="106" r="3" fill="#EE9591"/>
<circle cx="106" cy="119" r="3" fill="#EE9591"/>
</g>
</svg>
