<svg width="380" height="300" viewBox="0 0 380 300" fill="none" xmlns="http://www.w3.org/2000/svg">
<g filter="url(#filter0_d_1505_1516)">
<rect x="30" y="30" width="260" height="180" rx="16" fill="#FFFBFB"/>
</g>
<g filter="url(#filter1_d_1505_1516)">
<path d="M219 140C241.091 140 259 122.091 259 100C259 77.9086 241.091 60 219 60C196.909 60 179 77.9086 179 100C179 122.091 196.909 140 219 140Z" fill="#2D8CFF"/>
<path fill-rule="evenodd" clip-rule="evenodd" d="M242.478 86.559L231.174 94.8068V105.225L242.478 113.473C243.278 114.084 244.217 114.273 244.217 112.605V87.4272C244.217 85.9398 243.464 85.7529 242.478 86.559ZM192.913 106.261V87.4789C192.913 86.7106 193.542 86.087 194.317 86.087H221.709C225.974 86.087 229.435 89.5129 229.435 93.739V112.521C229.435 113.29 228.806 113.913 228.031 113.913H200.639C196.374 113.913 192.913 110.487 192.913 106.261Z" fill="white"/>
</g>
<g filter="url(#filter2_d_1505_1516)">
<path d="M139 100C139 77.9086 156.909 60 179 60C201.091 60 219 77.9086 219 100C219 122.091 201.091 140 179 140C156.909 140 139 122.091 139 100Z" fill="white"/>
<path d="M179 89.3688C182.255 89.3688 184.45 90.7748 185.702 91.9496L190.594 87.1733C187.59 84.3807 183.68 82.6666 179 82.6666C172.221 82.6666 166.366 86.557 163.516 92.2192L169.12 96.5718C170.526 92.3926 174.416 89.3688 179 89.3688Z" fill="#EA4335"/>
<path d="M195.64 100.385C195.64 98.9599 195.524 97.9199 195.274 96.8414H179V103.274H188.553C188.36 104.873 187.32 107.28 185.009 108.898L190.479 113.135C193.753 110.111 195.64 105.662 195.64 100.385Z" fill="#4285F4"/>
<path d="M169.139 103.428C168.773 102.35 168.561 101.194 168.561 100C168.561 98.8059 168.773 97.6504 169.12 96.5718L163.516 92.2192C162.341 94.5689 161.667 97.2074 161.667 100C161.667 102.793 162.341 105.431 163.516 107.781L169.139 103.428Z" fill="#FBBC05"/>
<path d="M179 117.333C183.68 117.333 187.609 115.793 190.479 113.135L185.009 108.898C183.545 109.918 181.581 110.631 179 110.631C174.416 110.631 170.526 107.607 169.139 103.428L163.535 107.781C166.385 113.443 172.221 117.333 179 117.333Z" fill="#34A853"/>
</g>
<g filter="url(#filter3_d_1505_1516)">
<path d="M99 100C99 77.9087 116.909 60 139 60C161.091 60 179 77.9087 179 100C179 122.091 161.091 140 139 140C116.909 140 99 122.091 99 100Z" fill="white"/>
<path d="M156.449 115.383H121.501C120.146 115.383 119.005 114.278 119.005 112.887V87.6389C119.005 86.2839 120.111 85.1427 121.501 85.1427H156.449C157.805 85.1427 158.946 86.2482 158.946 87.6389V112.887C158.946 114.278 157.84 115.383 156.449 115.383Z" fill="#E3E3E3"/>
<path opacity="0.1" d="M123.998 115.383L138.94 103.366L139.047 102.724L123.641 91.6331L123.605 114.849L123.998 115.383Z" fill="#231F20"/>
<path d="M121.501 115.383C120.111 115.383 119.005 114.278 119.005 112.887V87.6032C119.005 86.2126 120.111 85.9629 121.501 85.9629C122.892 85.9629 123.998 86.2482 123.998 87.6032V115.383H121.501Z" fill="#D54B3D"/>
<path fill-rule="evenodd" clip-rule="evenodd" d="M119.005 87.6032C119.005 86.2482 120.111 85.9629 121.501 85.9629C122.892 85.9629 123.998 86.2126 123.998 87.6032V115.383H121.501C120.111 115.383 119.005 114.278 119.005 112.887V87.6032ZM123.641 87.6032C123.641 86.8544 123.284 86.3195 121.501 86.3195C119.718 86.3195 119.362 86.8187 119.362 87.6032V112.887C119.362 114.064 120.325 115.027 121.501 115.027H123.641V87.6032Z" fill="#D72B27"/>
<path d="M156.449 115.383H153.953V87.5321C153.953 86.1412 155.059 85.9629 156.449 85.9629C157.84 85.9629 158.946 86.1412 158.946 87.5321V112.923C158.946 114.278 157.84 115.383 156.449 115.383Z" fill="#D54B3D"/>
<path fill-rule="evenodd" clip-rule="evenodd" d="M153.953 87.5321C153.953 86.1412 155.059 85.9629 156.449 85.9629C157.84 85.9629 158.946 86.1412 158.946 87.5321V112.923C158.946 114.314 157.84 115.419 156.449 115.419H153.953V87.5321ZM158.589 87.532C158.589 86.6404 158.054 86.3195 156.449 86.3195C154.845 86.3195 154.31 86.6047 154.31 87.532V115.062H156.449C157.626 115.062 158.589 114.1 158.589 112.923V87.532Z" fill="#D72B27"/>
<path d="M145.751 115.383L119.214 88.6403L120.61 89.208L139.083 102.51L158.946 87.9443V112.923C158.946 114.278 157.84 115.383 156.45 115.383H145.751Z" fill="url(#paint0_linear_1505_1516)"/>
<path d="M138.94 103.366L120.075 89.6717C118.97 88.8515 118.649 87.2824 119.469 86.1769C120.289 85.0714 121.894 84.8217 123.035 85.6419L138.976 97.2319L155.023 85.4994C156.129 84.679 157.698 84.9287 158.518 86.0699C159.338 87.1754 159.088 88.7445 157.947 89.5647L138.94 103.366Z" fill="#D54B3D"/>
<path fill-rule="evenodd" clip-rule="evenodd" d="M154.987 85.4637C155.415 85.1427 155.95 85 156.449 85C157.234 85 157.983 85.3567 158.482 86.0698C159.267 87.211 159.017 88.7445 157.912 89.5647L138.94 103.401L120.075 89.6717C118.969 88.8513 118.649 87.2823 119.433 86.1768C119.932 85.4993 120.717 85.1427 121.501 85.1427C122.036 85.1427 122.571 85.2853 122.999 85.6062L138.94 97.1962L154.987 85.4637ZM158.197 86.2482C157.769 85.6775 157.127 85.3567 156.449 85.3567C155.986 85.3567 155.558 85.4993 155.166 85.7488L139.154 97.4815L138.94 97.624L138.726 97.4815L122.821 85.9272C122.464 85.6418 122.001 85.4993 121.537 85.4993C120.824 85.4993 120.146 85.8558 119.754 86.3908C119.076 87.318 119.326 88.6732 120.289 89.3863L138.94 102.937L157.733 89.2437C158.66 88.5305 158.874 87.211 158.197 86.2482Z" fill="#D72B27"/>
</g>
<g filter="url(#filter4_d_1505_1516)">
<path d="M99 140C121.091 140 139 122.091 139 100C139 77.9086 121.091 60 99 60C76.9086 60 59 77.9086 59 100C59 122.091 76.9086 140 99 140Z" fill="url(#paint1_linear_1505_1516)"/>
<path fill-rule="evenodd" clip-rule="evenodd" d="M75 84.0071C75 79.5849 78.5686 76 83.0071 76H114.993C119.415 76 123 79.5686 123 84.0071V115.993C123 120.415 119.431 124 114.993 124H83.0071C78.5849 124 75 120.431 75 115.993V84.0071ZM102.12 85.1214V100.359C102.12 101.95 103.409 103.24 104.999 103.24H113.881C115.47 103.24 116.76 101.95 116.76 100.359V85.1214C116.76 83.5299 115.471 82.24 113.881 82.24H104.999C103.41 82.24 102.12 83.5301 102.12 85.1214ZM81.24 112.362V85.118C81.24 83.5285 82.5296 82.24 84.1193 82.24H93.0007C94.5909 82.24 95.88 83.5286 95.88 85.118V112.362C95.88 113.951 94.5904 115.24 93.0007 115.24H84.1193C82.5291 115.24 81.24 113.951 81.24 112.362Z" fill="white"/>
</g>
<path d="M63.2539 170.047L66.125 177.676L68.9893 170.047H71.2246V180H69.502V176.719L69.6729 172.33L66.7334 180H65.4961L62.5635 172.337L62.7344 176.719V180H61.0117V170.047H63.2539ZM77.2342 180C77.1613 179.859 77.0975 179.629 77.0428 179.31C76.5141 179.861 75.867 180.137 75.1014 180.137C74.3585 180.137 73.7524 179.925 73.283 179.501C72.8136 179.077 72.5789 178.553 72.5789 177.929C72.5789 177.14 72.8706 176.536 73.4539 176.117C74.0418 175.693 74.8803 175.481 75.9695 175.481H76.9881V174.996C76.9881 174.613 76.881 174.308 76.6668 174.08C76.4526 173.848 76.1268 173.731 75.6893 173.731C75.311 173.731 75.0011 173.827 74.7596 174.019C74.518 174.205 74.3973 174.445 74.3973 174.736H72.7361C72.7361 174.331 72.8706 173.952 73.1395 173.602C73.4083 173.246 73.7729 172.968 74.2332 172.768C74.698 172.567 75.2153 172.467 75.785 172.467C76.6508 172.467 77.3413 172.686 77.8562 173.123C78.3712 173.556 78.6355 174.167 78.6492 174.955V178.291C78.6492 178.956 78.7426 179.487 78.9295 179.884V180H77.2342ZM75.409 178.804C75.7371 178.804 76.0447 178.724 76.3318 178.564C76.6235 178.405 76.8423 178.191 76.9881 177.922V176.527H76.0926C75.4773 176.527 75.0148 176.634 74.7049 176.849C74.395 177.063 74.24 177.366 74.24 177.758C74.24 178.077 74.3449 178.332 74.5545 178.523C74.7687 178.71 75.0535 178.804 75.409 178.804ZM81.6305 172.604L81.6783 173.458C82.2252 172.797 82.943 172.467 83.8316 172.467C85.372 172.467 86.1559 173.349 86.1832 175.112V180H84.5221V175.208C84.5221 174.739 84.4195 174.392 84.2145 174.169C84.0139 173.941 83.6835 173.827 83.2232 173.827C82.5533 173.827 82.0543 174.13 81.7262 174.736V180H80.065V172.604H81.6305ZM92.0014 180C91.9285 179.859 91.8646 179.629 91.81 179.31C91.2813 179.861 90.6342 180.137 89.8686 180.137C89.1257 180.137 88.5196 179.925 88.0502 179.501C87.5808 179.077 87.3461 178.553 87.3461 177.929C87.3461 177.14 87.6378 176.536 88.2211 176.117C88.809 175.693 89.6475 175.481 90.7367 175.481H91.7553V174.996C91.7553 174.613 91.6482 174.308 91.434 174.08C91.2198 173.848 90.8939 173.731 90.4564 173.731C90.0782 173.731 89.7683 173.827 89.5268 174.019C89.2852 174.205 89.1645 174.445 89.1645 174.736H87.5033C87.5033 174.331 87.6378 173.952 87.9066 173.602C88.1755 173.246 88.5401 172.968 89.0004 172.768C89.4652 172.567 89.9825 172.467 90.5521 172.467C91.418 172.467 92.1085 172.686 92.6234 173.123C93.1384 173.556 93.4027 174.167 93.4164 174.955V178.291C93.4164 178.956 93.5098 179.487 93.6967 179.884V180H92.0014ZM90.1762 178.804C90.5043 178.804 90.8119 178.724 91.099 178.564C91.3907 178.405 91.6094 178.191 91.7553 177.922V176.527H90.8598C90.2445 176.527 89.782 176.634 89.4721 176.849C89.1622 177.063 89.0072 177.366 89.0072 177.758C89.0072 178.077 89.112 178.332 89.3217 178.523C89.5359 178.71 89.8207 178.804 90.1762 178.804ZM94.5656 176.247C94.5656 175.099 94.8345 174.183 95.3723 173.499C95.9146 172.811 96.6324 172.467 97.5256 172.467C98.3687 172.467 99.0318 172.761 99.5148 173.349L99.59 172.604H101.087V179.774C101.087 180.745 100.784 181.511 100.178 182.071C99.5764 182.632 98.7629 182.912 97.7375 182.912C97.1952 182.912 96.6643 182.798 96.1447 182.57C95.6298 182.347 95.2378 182.053 94.9689 181.688L95.7551 180.69C96.2655 181.297 96.8944 181.6 97.6418 181.6C98.1932 181.6 98.6284 181.449 98.9475 181.148C99.2665 180.852 99.426 180.415 99.426 179.836V179.337C98.9475 179.87 98.3094 180.137 97.5119 180.137C96.646 180.137 95.9374 179.793 95.3859 179.104C94.8391 178.416 94.5656 177.464 94.5656 176.247ZM96.2199 176.391C96.2199 177.133 96.3703 177.719 96.6711 178.147C96.9764 178.571 97.398 178.783 97.9357 178.783C98.6057 178.783 99.1024 178.496 99.426 177.922V174.668C99.1115 174.107 98.6193 173.827 97.9494 173.827C97.4025 173.827 96.9764 174.044 96.6711 174.477C96.3703 174.91 96.2199 175.548 96.2199 176.391ZM105.757 180.137C104.704 180.137 103.85 179.806 103.193 179.146C102.542 178.48 102.216 177.596 102.216 176.493V176.288C102.216 175.55 102.357 174.891 102.64 174.312C102.927 173.729 103.328 173.276 103.843 172.952C104.358 172.629 104.932 172.467 105.565 172.467C106.573 172.467 107.35 172.788 107.896 173.431C108.448 174.073 108.724 174.982 108.724 176.158V176.828H103.891C103.941 177.439 104.144 177.922 104.499 178.277C104.859 178.633 105.31 178.811 105.853 178.811C106.614 178.811 107.233 178.503 107.712 177.888L108.607 178.742C108.311 179.184 107.915 179.528 107.418 179.774C106.926 180.016 106.372 180.137 105.757 180.137ZM105.559 173.8C105.103 173.8 104.734 173.959 104.451 174.278C104.173 174.597 103.995 175.042 103.918 175.611H107.083V175.488C107.047 174.932 106.898 174.513 106.639 174.23C106.379 173.943 106.019 173.8 105.559 173.8ZM111.281 172.604L111.329 173.376C111.848 172.77 112.559 172.467 113.462 172.467C114.451 172.467 115.127 172.845 115.492 173.602C116.03 172.845 116.786 172.467 117.762 172.467C118.577 172.467 119.183 172.692 119.58 173.144C119.981 173.595 120.186 174.26 120.195 175.14V180H118.534V175.188C118.534 174.718 118.431 174.374 118.226 174.155C118.021 173.937 117.682 173.827 117.208 173.827C116.83 173.827 116.52 173.93 116.278 174.135C116.041 174.335 115.875 174.6 115.779 174.928L115.786 180H114.125V175.133C114.102 174.262 113.658 173.827 112.792 173.827C112.126 173.827 111.655 174.098 111.377 174.641V180H109.716V172.604H111.281ZM124.858 180.137C123.805 180.137 122.951 179.806 122.295 179.146C121.643 178.48 121.317 177.596 121.317 176.493V176.288C121.317 175.55 121.458 174.891 121.741 174.312C122.028 173.729 122.429 173.276 122.944 172.952C123.459 172.629 124.033 172.467 124.667 172.467C125.674 172.467 126.451 172.788 126.998 173.431C127.549 174.073 127.825 174.982 127.825 176.158V176.828H122.992C123.042 177.439 123.245 177.922 123.6 178.277C123.96 178.633 124.411 178.811 124.954 178.811C125.715 178.811 126.335 178.503 126.813 177.888L127.709 178.742C127.412 179.184 127.016 179.528 126.519 179.774C126.027 180.016 125.473 180.137 124.858 180.137ZM124.66 173.8C124.204 173.8 123.835 173.959 123.552 174.278C123.274 174.597 123.097 175.042 123.019 175.611H126.184V175.488C126.148 174.932 126 174.513 125.74 174.23C125.48 173.943 125.12 173.8 124.66 173.8ZM130.362 172.604L130.41 173.458C130.956 172.797 131.674 172.467 132.563 172.467C134.103 172.467 134.887 173.349 134.914 175.112V180H133.253V175.208C133.253 174.739 133.151 174.392 132.946 174.169C132.745 173.941 132.415 173.827 131.954 173.827C131.285 173.827 130.786 174.13 130.457 174.736V180H128.796V172.604H130.362ZM138.395 170.806V172.604H139.7V173.834H138.395V177.963C138.395 178.245 138.449 178.451 138.559 178.578C138.673 178.701 138.873 178.763 139.16 178.763C139.352 178.763 139.545 178.74 139.741 178.694V179.979C139.363 180.084 138.999 180.137 138.648 180.137C137.372 180.137 136.734 179.433 136.734 178.024V173.834H135.517V172.604H136.734V170.806H138.395ZM150.804 171.441H147.7V180H145.984V171.441H142.908V170.047H150.804V171.441ZM149.922 176.233C149.922 175.509 150.066 174.857 150.353 174.278C150.64 173.695 151.044 173.248 151.563 172.938C152.083 172.624 152.68 172.467 153.354 172.467C154.352 172.467 155.161 172.788 155.781 173.431C156.405 174.073 156.742 174.925 156.793 175.987L156.799 176.377C156.799 177.106 156.658 177.758 156.376 178.332C156.098 178.906 155.697 179.351 155.172 179.665C154.653 179.979 154.051 180.137 153.368 180.137C152.324 180.137 151.488 179.79 150.859 179.098C150.235 178.4 149.922 177.473 149.922 176.315V176.233ZM151.584 176.377C151.584 177.138 151.741 177.735 152.055 178.168C152.37 178.596 152.807 178.811 153.368 178.811C153.928 178.811 154.364 178.592 154.673 178.154C154.988 177.717 155.145 177.076 155.145 176.233C155.145 175.486 154.983 174.894 154.66 174.456C154.341 174.019 153.906 173.8 153.354 173.8C152.812 173.8 152.381 174.016 152.062 174.449C151.743 174.878 151.584 175.52 151.584 176.377ZM157.593 176.233C157.593 175.509 157.737 174.857 158.024 174.278C158.311 173.695 158.714 173.248 159.234 172.938C159.753 172.624 160.35 172.467 161.025 172.467C162.023 172.467 162.832 172.788 163.452 173.431C164.076 174.073 164.413 174.925 164.463 175.987L164.47 176.377C164.47 177.106 164.329 177.758 164.046 178.332C163.768 178.906 163.367 179.351 162.843 179.665C162.324 179.979 161.722 180.137 161.038 180.137C159.995 180.137 159.159 179.79 158.53 179.098C157.905 178.4 157.593 177.473 157.593 176.315V176.233ZM159.254 176.377C159.254 177.138 159.412 177.735 159.726 178.168C160.04 178.596 160.478 178.811 161.038 178.811C161.599 178.811 162.034 178.592 162.344 178.154C162.659 177.717 162.816 177.076 162.816 176.233C162.816 175.486 162.654 174.894 162.33 174.456C162.011 174.019 161.576 173.8 161.025 173.8C160.482 173.8 160.052 174.016 159.733 174.449C159.414 174.878 159.254 175.52 159.254 176.377ZM167.342 180H165.681V169.5H167.342V180ZM173.003 177.99C173.003 177.694 172.88 177.468 172.634 177.313C172.392 177.159 171.989 177.022 171.424 176.903C170.859 176.785 170.387 176.634 170.009 176.452C169.179 176.051 168.765 175.47 168.765 174.709C168.765 174.071 169.034 173.538 169.571 173.109C170.109 172.681 170.793 172.467 171.622 172.467C172.506 172.467 173.219 172.686 173.762 173.123C174.309 173.561 174.582 174.128 174.582 174.825H172.921C172.921 174.506 172.802 174.242 172.565 174.032C172.328 173.818 172.014 173.711 171.622 173.711C171.257 173.711 170.959 173.795 170.727 173.964C170.499 174.132 170.385 174.358 170.385 174.641C170.385 174.896 170.492 175.094 170.706 175.235C170.92 175.377 171.353 175.52 172.005 175.666C172.657 175.807 173.167 175.978 173.536 176.179C173.91 176.375 174.186 176.612 174.363 176.89C174.546 177.168 174.637 177.505 174.637 177.901C174.637 178.567 174.361 179.107 173.81 179.521C173.258 179.932 172.536 180.137 171.643 180.137C171.036 180.137 170.496 180.027 170.022 179.809C169.549 179.59 169.179 179.289 168.915 178.906C168.651 178.523 168.519 178.111 168.519 177.669H170.132C170.155 178.061 170.303 178.364 170.576 178.578C170.85 178.788 171.212 178.893 171.663 178.893C172.101 178.893 172.433 178.811 172.661 178.646C172.889 178.478 173.003 178.259 173.003 177.99Z" fill="#888888"/>
<defs>
<filter id="filter0_d_1505_1516" x="0" y="0" width="380" height="300" filterUnits="userSpaceOnUse" color-interpolation-filters="sRGB">
<feFlood flood-opacity="0" result="BackgroundImageFix"/>
<feColorMatrix in="SourceAlpha" type="matrix" values="0 0 0 0 0 0 0 0 0 0 0 0 0 0 0 0 0 0 127 0" result="hardAlpha"/>
<feOffset dx="30" dy="30"/>
<feGaussianBlur stdDeviation="30"/>
<feColorMatrix type="matrix" values="0 0 0 0 0.333333 0 0 0 0 0.333333 0 0 0 0 0.333333 0 0 0 0.1 0"/>
<feBlend mode="normal" in2="BackgroundImageFix" result="effect1_dropShadow_1505_1516"/>
<feBlend mode="normal" in="SourceGraphic" in2="effect1_dropShadow_1505_1516" result="shape"/>
</filter>
<filter id="filter1_d_1505_1516" x="169" y="50" width="112" height="112" filterUnits="userSpaceOnUse" color-interpolation-filters="sRGB">
<feFlood flood-opacity="0" result="BackgroundImageFix"/>
<feColorMatrix in="SourceAlpha" type="matrix" values="0 0 0 0 0 0 0 0 0 0 0 0 0 0 0 0 0 0 127 0" result="hardAlpha"/>
<feOffset dx="6" dy="6"/>
<feGaussianBlur stdDeviation="8"/>
<feColorMatrix type="matrix" values="0 0 0 0 0 0 0 0 0 0 0 0 0 0 0 0 0 0 0.1 0"/>
<feBlend mode="normal" in2="BackgroundImageFix" result="effect1_dropShadow_1505_1516"/>
<feBlend mode="normal" in="SourceGraphic" in2="effect1_dropShadow_1505_1516" result="shape"/>
</filter>
<filter id="filter2_d_1505_1516" x="129" y="50" width="112" height="112" filterUnits="userSpaceOnUse" color-interpolation-filters="sRGB">
<feFlood flood-opacity="0" result="BackgroundImageFix"/>
<feColorMatrix in="SourceAlpha" type="matrix" values="0 0 0 0 0 0 0 0 0 0 0 0 0 0 0 0 0 0 127 0" result="hardAlpha"/>
<feOffset dx="6" dy="6"/>
<feGaussianBlur stdDeviation="8"/>
<feColorMatrix type="matrix" values="0 0 0 0 0 0 0 0 0 0 0 0 0 0 0 0 0 0 0.1 0"/>
<feBlend mode="normal" in2="BackgroundImageFix" result="effect1_dropShadow_1505_1516"/>
<feBlend mode="normal" in="SourceGraphic" in2="effect1_dropShadow_1505_1516" result="shape"/>
</filter>
<filter id="filter3_d_1505_1516" x="89" y="50" width="112" height="112" filterUnits="userSpaceOnUse" color-interpolation-filters="sRGB">
<feFlood flood-opacity="0" result="BackgroundImageFix"/>
<feColorMatrix in="SourceAlpha" type="matrix" values="0 0 0 0 0 0 0 0 0 0 0 0 0 0 0 0 0 0 127 0" result="hardAlpha"/>
<feOffset dx="6" dy="6"/>
<feGaussianBlur stdDeviation="8"/>
<feColorMatrix type="matrix" values="0 0 0 0 0 0 0 0 0 0 0 0 0 0 0 0 0 0 0.1 0"/>
<feBlend mode="normal" in2="BackgroundImageFix" result="effect1_dropShadow_1505_1516"/>
<feBlend mode="normal" in="SourceGraphic" in2="effect1_dropShadow_1505_1516" result="shape"/>
</filter>
<filter id="filter4_d_1505_1516" x="49" y="50" width="112" height="112" filterUnits="userSpaceOnUse" color-interpolation-filters="sRGB">
<feFlood flood-opacity="0" result="BackgroundImageFix"/>
<feColorMatrix in="SourceAlpha" type="matrix" values="0 0 0 0 0 0 0 0 0 0 0 0 0 0 0 0 0 0 127 0" result="hardAlpha"/>
<feOffset dx="6" dy="6"/>
<feGaussianBlur stdDeviation="8"/>
<feColorMatrix type="matrix" values="0 0 0 0 0 0 0 0 0 0 0 0 0 0 0 0 0 0 0.1 0"/>
<feBlend mode="normal" in2="BackgroundImageFix" result="effect1_dropShadow_1505_1516"/>
<feBlend mode="normal" in="SourceGraphic" in2="effect1_dropShadow_1505_1516" result="shape"/>
</filter>
<linearGradient id="paint0_linear_1505_1516" x1="119.216" y1="115.387" x2="158.959" y2="115.387" gradientUnits="userSpaceOnUse">
<stop stop-opacity="0.1"/>
<stop offset="1" stop-opacity="0.2"/>
</linearGradient>
<linearGradient id="paint1_linear_1505_1516" x1="59" y1="60" x2="59" y2="140" gradientUnits="userSpaceOnUse">
<stop stop-color="#0091E6"/>
<stop offset="1" stop-color="#0079BF"/>
</linearGradient>
</defs>
</svg>
