<svg width="380" height="300" viewBox="0 0 380 300" fill="none" xmlns="http://www.w3.org/2000/svg">
<g filter="url(#filter0_d_1505_1517)">
<rect x="30" y="30" width="260" height="180" rx="16" fill="#FFFBFB"/>
</g>
<path d="M66.8291 175.557H62.7412V178.619H67.5195V180H61.0117V170.047H67.4717V171.441H62.7412V174.189H66.8291V175.557ZM70.0086 172.604L70.0564 173.458C70.6033 172.797 71.3211 172.467 72.2098 172.467C73.7501 172.467 74.534 173.349 74.5613 175.112V180H72.9002V175.208C72.9002 174.739 72.7977 174.392 72.5926 174.169C72.3921 173.941 72.0617 173.827 71.6014 173.827C70.9314 173.827 70.4324 174.13 70.1043 174.736V180H68.4432V172.604H70.0086ZM77.5973 173.41C78.1396 172.781 78.8255 172.467 79.6549 172.467C81.2317 172.467 82.0315 173.367 82.0543 175.167V180H80.3932V175.229C80.3932 174.718 80.2815 174.358 80.0582 174.148C79.8395 173.934 79.5159 173.827 79.0875 173.827C78.4221 173.827 77.9254 174.123 77.5973 174.716V180H75.9361V169.5H77.5973V173.41ZM87.8588 180C87.7859 179.859 87.7221 179.629 87.6674 179.31C87.1387 179.861 86.4916 180.137 85.726 180.137C84.9831 180.137 84.377 179.925 83.9076 179.501C83.4382 179.077 83.2035 178.553 83.2035 177.929C83.2035 177.14 83.4952 176.536 84.0785 176.117C84.6664 175.693 85.5049 175.481 86.5941 175.481H87.6127V174.996C87.6127 174.613 87.5056 174.308 87.2914 174.08C87.0772 173.848 86.7514 173.731 86.3139 173.731C85.9356 173.731 85.6257 173.827 85.3842 174.019C85.1426 174.205 85.0219 174.445 85.0219 174.736H83.3607C83.3607 174.331 83.4952 173.952 83.7641 173.602C84.0329 173.246 84.3975 172.968 84.8578 172.768C85.3227 172.567 85.8399 172.467 86.4096 172.467C87.2755 172.467 87.9659 172.686 88.4809 173.123C88.9958 173.556 89.2602 174.167 89.2738 174.955V178.291C89.2738 178.956 89.3673 179.487 89.5541 179.884V180H87.8588ZM86.0336 178.804C86.3617 178.804 86.6693 178.724 86.9564 178.564C87.2481 178.405 87.4669 178.191 87.6127 177.922V176.527H86.7172C86.102 176.527 85.6394 176.634 85.3295 176.849C85.0196 177.063 84.8646 177.366 84.8646 177.758C84.8646 178.077 84.9695 178.332 85.1791 178.523C85.3933 178.71 85.6781 178.804 86.0336 178.804ZM92.2551 172.604L92.3029 173.458C92.8498 172.797 93.5676 172.467 94.4562 172.467C95.9966 172.467 96.7805 173.349 96.8078 175.112V180H95.1467V175.208C95.1467 174.739 95.0441 174.392 94.8391 174.169C94.6385 173.941 94.3081 173.827 93.8479 173.827C93.1779 173.827 92.6789 174.13 92.3508 174.736V180H90.6896V172.604H92.2551ZM101.245 178.811C101.66 178.811 102.004 178.69 102.277 178.448C102.551 178.207 102.697 177.908 102.715 177.553H104.28C104.262 178.013 104.118 178.444 103.85 178.845C103.581 179.241 103.216 179.556 102.756 179.788C102.296 180.021 101.799 180.137 101.266 180.137C100.231 180.137 99.4108 179.802 98.8047 179.132C98.1986 178.462 97.8955 177.537 97.8955 176.356V176.186C97.8955 175.06 98.1963 174.16 98.7979 173.485C99.3994 172.806 100.22 172.467 101.259 172.467C102.138 172.467 102.854 172.724 103.405 173.239C103.961 173.75 104.253 174.422 104.28 175.256H102.715C102.697 174.832 102.551 174.483 102.277 174.21C102.008 173.937 101.664 173.8 101.245 173.8C100.707 173.8 100.293 173.996 100.001 174.388C99.7093 174.775 99.5612 175.365 99.5566 176.158V176.425C99.5566 177.227 99.7002 177.826 99.9873 178.223C100.279 178.615 100.698 178.811 101.245 178.811ZM108.492 180.137C107.439 180.137 106.585 179.806 105.929 179.146C105.277 178.48 104.951 177.596 104.951 176.493V176.288C104.951 175.55 105.092 174.891 105.375 174.312C105.662 173.729 106.063 173.276 106.578 172.952C107.093 172.629 107.667 172.467 108.301 172.467C109.308 172.467 110.085 172.788 110.632 173.431C111.183 174.073 111.459 174.982 111.459 176.158V176.828H106.626C106.676 177.439 106.879 177.922 107.234 178.277C107.594 178.633 108.045 178.811 108.588 178.811C109.349 178.811 109.969 178.503 110.447 177.888L111.343 178.742C111.046 179.184 110.65 179.528 110.153 179.774C109.661 180.016 109.107 180.137 108.492 180.137ZM108.294 173.8C107.838 173.8 107.469 173.959 107.186 174.278C106.908 174.597 106.731 175.042 106.653 175.611H109.818V175.488C109.782 174.932 109.634 174.513 109.374 174.23C109.114 173.943 108.754 173.8 108.294 173.8ZM123.396 176.76C123.296 177.822 122.904 178.651 122.22 179.248C121.537 179.84 120.627 180.137 119.493 180.137C118.7 180.137 118 179.95 117.394 179.576C116.792 179.198 116.328 178.662 115.999 177.97C115.671 177.277 115.5 176.473 115.487 175.557V174.627C115.487 173.688 115.653 172.861 115.986 172.146C116.318 171.43 116.795 170.879 117.414 170.491C118.039 170.104 118.759 169.91 119.575 169.91C120.673 169.91 121.557 170.209 122.227 170.806C122.897 171.403 123.287 172.246 123.396 173.335H121.673C121.591 172.619 121.382 172.104 121.044 171.79C120.712 171.471 120.222 171.312 119.575 171.312C118.823 171.312 118.244 171.587 117.838 172.139C117.437 172.686 117.232 173.49 117.223 174.552V175.434C117.223 176.509 117.414 177.329 117.797 177.895C118.185 178.46 118.75 178.742 119.493 178.742C120.172 178.742 120.682 178.59 121.024 178.284C121.366 177.979 121.582 177.471 121.673 176.76H123.396ZM126.124 173.41C126.667 172.781 127.352 172.467 128.182 172.467C129.759 172.467 130.558 173.367 130.581 175.167V180H128.92V175.229C128.92 174.718 128.808 174.358 128.585 174.148C128.366 173.934 128.043 173.827 127.614 173.827C126.949 173.827 126.452 174.123 126.124 174.716V180H124.463V169.5H126.124V173.41ZM136.386 180C136.313 179.859 136.249 179.629 136.194 179.31C135.666 179.861 135.019 180.137 134.253 180.137C133.51 180.137 132.904 179.925 132.435 179.501C131.965 179.077 131.73 178.553 131.73 177.929C131.73 177.14 132.022 176.536 132.605 176.117C133.193 175.693 134.032 175.481 135.121 175.481H136.14V174.996C136.14 174.613 136.033 174.308 135.818 174.08C135.604 173.848 135.278 173.731 134.841 173.731C134.463 173.731 134.153 173.827 133.911 174.019C133.67 174.205 133.549 174.445 133.549 174.736H131.888C131.888 174.331 132.022 173.952 132.291 173.602C132.56 173.246 132.924 172.968 133.385 172.768C133.85 172.567 134.367 172.467 134.937 172.467C135.802 172.467 136.493 172.686 137.008 173.123C137.523 173.556 137.787 174.167 137.801 174.955V178.291C137.801 178.956 137.894 179.487 138.081 179.884V180H136.386ZM134.561 178.804C134.889 178.804 135.196 178.724 135.483 178.564C135.775 178.405 135.994 178.191 136.14 177.922V176.527H135.244C134.629 176.527 134.166 176.634 133.856 176.849C133.547 177.063 133.392 177.366 133.392 177.758C133.392 178.077 133.496 178.332 133.706 178.523C133.92 178.71 134.205 178.804 134.561 178.804ZM141.322 170.806V172.604H142.628V173.834H141.322V177.963C141.322 178.245 141.377 178.451 141.486 178.578C141.6 178.701 141.801 178.763 142.088 178.763C142.279 178.763 142.473 178.74 142.669 178.694V179.979C142.29 180.084 141.926 180.137 141.575 180.137C140.299 180.137 139.661 179.433 139.661 178.024V173.834H138.444V172.604H139.661V170.806H141.322ZM153.731 171.441H150.627V180H148.912V171.441H145.835V170.047H153.731V171.441ZM152.85 176.233C152.85 175.509 152.993 174.857 153.28 174.278C153.568 173.695 153.971 173.248 154.49 172.938C155.01 172.624 155.607 172.467 156.281 172.467C157.279 172.467 158.088 172.788 158.708 173.431C159.333 174.073 159.67 174.925 159.72 175.987L159.727 176.377C159.727 177.106 159.585 177.758 159.303 178.332C159.025 178.906 158.624 179.351 158.1 179.665C157.58 179.979 156.979 180.137 156.295 180.137C155.252 180.137 154.415 179.79 153.786 179.098C153.162 178.4 152.85 177.473 152.85 176.315V176.233ZM154.511 176.377C154.511 177.138 154.668 177.735 154.983 178.168C155.297 178.596 155.735 178.811 156.295 178.811C156.856 178.811 157.291 178.592 157.601 178.154C157.915 177.717 158.072 177.076 158.072 176.233C158.072 175.486 157.911 174.894 157.587 174.456C157.268 174.019 156.833 173.8 156.281 173.8C155.739 173.8 155.308 174.016 154.989 174.449C154.67 174.878 154.511 175.52 154.511 176.377ZM160.521 176.233C160.521 175.509 160.664 174.857 160.951 174.278C161.238 173.695 161.642 173.248 162.161 172.938C162.681 172.624 163.278 172.467 163.952 172.467C164.95 172.467 165.759 172.788 166.379 173.431C167.003 174.073 167.34 174.925 167.391 175.987L167.397 176.377C167.397 177.106 167.256 177.758 166.974 178.332C166.696 178.906 166.295 179.351 165.771 179.665C165.251 179.979 164.649 180.137 163.966 180.137C162.922 180.137 162.086 179.79 161.457 179.098C160.833 178.4 160.521 177.473 160.521 176.315V176.233ZM162.182 176.377C162.182 177.138 162.339 177.735 162.653 178.168C162.968 178.596 163.405 178.811 163.966 178.811C164.526 178.811 164.962 178.592 165.271 178.154C165.586 177.717 165.743 177.076 165.743 176.233C165.743 175.486 165.581 174.894 165.258 174.456C164.939 174.019 164.504 173.8 163.952 173.8C163.41 173.8 162.979 174.016 162.66 174.449C162.341 174.878 162.182 175.52 162.182 176.377ZM170.269 180H168.608V169.5H170.269V180ZM175.93 177.99C175.93 177.694 175.807 177.468 175.561 177.313C175.32 177.159 174.916 177.022 174.351 176.903C173.786 176.785 173.314 176.634 172.936 176.452C172.107 176.051 171.692 175.47 171.692 174.709C171.692 174.071 171.961 173.538 172.499 173.109C173.036 172.681 173.72 172.467 174.549 172.467C175.434 172.467 176.147 172.686 176.689 173.123C177.236 173.561 177.509 174.128 177.509 174.825H175.848C175.848 174.506 175.73 174.242 175.493 174.032C175.256 173.818 174.941 173.711 174.549 173.711C174.185 173.711 173.886 173.795 173.654 173.964C173.426 174.132 173.312 174.358 173.312 174.641C173.312 174.896 173.419 175.094 173.633 175.235C173.848 175.377 174.281 175.52 174.932 175.666C175.584 175.807 176.094 175.978 176.463 176.179C176.837 176.375 177.113 176.612 177.291 176.89C177.473 177.168 177.564 177.505 177.564 177.901C177.564 178.567 177.288 179.107 176.737 179.521C176.185 179.932 175.463 180.137 174.57 180.137C173.964 180.137 173.424 180.027 172.95 179.809C172.476 179.59 172.107 179.289 171.842 178.906C171.578 178.523 171.446 178.111 171.446 177.669H173.059C173.082 178.061 173.23 178.364 173.504 178.578C173.777 178.788 174.139 178.893 174.59 178.893C175.028 178.893 175.361 178.811 175.588 178.646C175.816 178.478 175.93 178.259 175.93 177.99Z" fill="#888888"/>
<g filter="url(#filter1_d_1505_1517)">
<path d="M220 140C242.091 140 260 122.091 260 100C260 77.9086 242.091 60 220 60C197.909 60 180 77.9086 180 100C180 122.091 197.909 140 220 140Z" fill="white"/>
<path d="M204.762 115.402V123.941L212.746 119.402C214.971 120.043 217.337 120.389 219.788 120.389C232.926 120.389 243.575 110.452 243.575 98.1947C243.575 85.9368 232.926 76 219.788 76C206.65 76 196 85.9368 196 98.1947C196 105.136 199.415 111.333 204.762 115.402Z" fill="url(#paint0_linear_1505_1517)"/>
<path d="M217.247 92.1157L204.419 105.698L216.094 99.2928L222.194 105.698L234.95 92.1157L223.405 98.4092L217.247 92.1157Z" fill="white"/>
</g>
<g filter="url(#filter2_d_1505_1517)">
<path d="M140 100C140 77.9086 157.909 60 180 60C202.091 60 220 77.9086 220 100C220 122.091 202.091 140 180 140C157.909 140 140 122.091 140 100Z" fill="white"/>
<path d="M167.559 105.661C167.559 108.143 165.532 110.169 163.051 110.169C160.57 110.169 158.543 108.143 158.543 105.661C158.543 103.18 160.57 101.153 163.051 101.153H167.559V105.661Z" fill="#E01E5A"/>
<path d="M169.831 105.661C169.831 103.18 171.858 101.153 174.339 101.153C176.82 101.153 178.847 103.18 178.847 105.661V116.949C178.847 119.43 176.82 121.457 174.339 121.457C171.858 121.457 169.831 119.43 169.831 116.949V105.661Z" fill="#E01E5A"/>
<path d="M174.339 87.5592C171.858 87.5592 169.831 85.5323 169.831 83.0512C169.831 80.57 171.858 78.5431 174.339 78.5431C176.82 78.5431 178.847 80.57 178.847 83.0512V87.5592H174.339Z" fill="#36C5F0"/>
<path d="M174.339 89.8307C176.82 89.8307 178.847 91.8576 178.847 94.3388C178.847 96.8199 176.82 98.8468 174.339 98.8468H163.051C160.57 98.8468 158.543 96.8199 158.543 94.3388C158.543 91.8576 160.57 89.8307 163.051 89.8307H174.339Z" fill="#36C5F0"/>
<path d="M192.441 94.3388C192.441 91.8576 194.468 89.8307 196.949 89.8307C199.43 89.8307 201.457 91.8576 201.457 94.3388C201.457 96.8199 199.43 98.8468 196.949 98.8468H192.441V94.3388Z" fill="#2EB67D"/>
<path d="M190.169 94.3388C190.169 96.82 188.142 98.8469 185.661 98.8469C183.18 98.8469 181.153 96.82 181.153 94.3388V83.0512C181.153 80.57 183.18 78.5431 185.661 78.5431C188.142 78.5431 190.169 80.57 190.169 83.0512V94.3388Z" fill="#2EB67D"/>
<path d="M185.661 112.441C188.142 112.441 190.169 114.468 190.169 116.949C190.169 119.43 188.142 121.457 185.661 121.457C183.18 121.457 181.153 119.43 181.153 116.949V112.441H185.661Z" fill="#ECB22E"/>
<path d="M185.661 110.169C183.18 110.169 181.153 108.143 181.153 105.661C181.153 103.18 183.18 101.153 185.661 101.153H196.949C199.43 101.153 201.457 103.18 201.457 105.661C201.457 108.143 199.43 110.169 196.949 110.169H185.661Z" fill="#ECB22E"/>
</g>
<g filter="url(#filter3_d_1505_1517)">
<path d="M140 140C162.091 140 180 122.091 180 100C180 77.9086 162.091 60 140 60C117.909 60 100 77.9086 100 100C100 122.091 117.909 140 140 140Z" fill="#25D366"/>
<path fill-rule="evenodd" clip-rule="evenodd" d="M141.318 122.254H141.309C137.328 122.253 133.416 121.254 129.942 119.359L117.333 122.667L120.708 110.341C118.626 106.734 117.531 102.643 117.533 98.4505C117.538 85.3362 128.208 74.6667 141.318 74.6667C147.681 74.6695 153.653 77.1465 158.144 81.6424C162.634 86.1381 165.106 92.114 165.104 98.4693C165.098 111.581 154.432 122.249 141.318 122.254ZM130.526 115.053L131.248 115.482C134.284 117.283 137.763 118.236 141.31 118.237H141.318C152.215 118.237 161.083 109.369 161.088 98.4679C161.09 93.1854 159.035 88.2185 155.303 84.4817C151.57 80.7449 146.607 78.6859 141.326 78.6841C130.422 78.6841 121.553 87.5519 121.549 98.4518C121.547 102.187 122.592 105.825 124.571 108.973L125.041 109.721L123.044 117.016L130.526 115.053ZM152.487 103.59C152.902 103.791 153.182 103.926 153.301 104.125C153.45 104.373 153.45 105.563 152.955 106.952C152.459 108.34 150.085 109.607 148.943 109.777C147.919 109.93 146.624 109.994 145.2 109.542C144.337 109.268 143.23 108.902 141.812 108.29C136.24 105.884 132.475 100.484 131.763 99.4635C131.714 99.392 131.679 99.342 131.659 99.316L131.654 99.3096C131.34 98.89 129.233 96.0782 129.233 93.1681C129.233 90.4305 130.577 88.9956 131.196 88.3351C131.239 88.2899 131.278 88.2483 131.313 88.2101C131.857 87.6151 132.501 87.4664 132.897 87.4664C133.294 87.4664 133.69 87.47 134.036 87.4874C134.079 87.4896 134.124 87.4893 134.17 87.489C134.516 87.487 134.948 87.4845 135.374 88.5076C135.537 88.9014 135.777 89.4851 136.03 90.1007C136.542 91.3457 137.107 92.7214 137.206 92.9205C137.355 93.218 137.454 93.5649 137.256 93.9617C137.226 94.0212 137.198 94.0774 137.172 94.131C137.023 94.4348 136.914 94.6582 136.661 94.9531C136.562 95.069 136.459 95.194 136.357 95.319C136.152 95.568 135.948 95.817 135.77 95.9943C135.472 96.2907 135.163 96.6122 135.509 97.2072C135.856 97.8022 137.049 99.7483 138.815 101.324C140.715 103.018 142.365 103.734 143.202 104.097C143.365 104.168 143.498 104.225 143.595 104.274C144.189 104.572 144.536 104.522 144.882 104.125C145.229 103.729 146.368 102.39 146.764 101.795C147.16 101.2 147.557 101.299 148.101 101.498C148.646 101.696 151.568 103.134 152.162 103.431C152.278 103.489 152.387 103.542 152.487 103.59Z" fill="#FDFDFD"/>
</g>
<g filter="url(#filter4_d_1505_1517)">
<path d="M100 140C122.091 140 140 122.091 140 100C140 77.9087 122.091 60 100 60C77.9087 60 60 77.9087 60 100C60 122.091 77.9087 140 100 140Z" fill="url(#paint1_linear_1505_1517)"/>
<path d="M74.897 101.957C79.573 99.381 84.7927 97.2314 89.6697 95.0707C98.06 91.5317 106.484 88.054 114.992 84.8164C116.648 84.2647 119.622 83.7252 119.914 86.1785C119.754 89.6512 119.097 93.1035 118.647 96.5559C117.503 104.148 116.181 111.714 114.892 119.281C114.447 121.801 111.29 123.106 109.27 121.493C104.414 118.214 99.5217 114.966 94.7283 111.61C93.1582 110.015 94.6142 107.724 96.0165 106.584C100.015 102.643 104.256 99.2949 108.046 95.1502C109.069 92.6814 106.048 94.762 105.052 95.3995C99.5772 99.1722 94.2365 103.175 88.4645 106.491C85.5162 108.114 82.0798 106.727 79.1328 105.821C76.4905 104.727 72.6184 103.625 74.8968 101.957L74.897 101.957Z" fill="white"/>
</g>
<defs>
<filter id="filter0_d_1505_1517" x="0" y="0" width="380" height="300" filterUnits="userSpaceOnUse" color-interpolation-filters="sRGB">
<feFlood flood-opacity="0" result="BackgroundImageFix"/>
<feColorMatrix in="SourceAlpha" type="matrix" values="0 0 0 0 0 0 0 0 0 0 0 0 0 0 0 0 0 0 127 0" result="hardAlpha"/>
<feOffset dx="30" dy="30"/>
<feGaussianBlur stdDeviation="30"/>
<feColorMatrix type="matrix" values="0 0 0 0 0.333333 0 0 0 0 0.333333 0 0 0 0 0.333333 0 0 0 0.1 0"/>
<feBlend mode="normal" in2="BackgroundImageFix" result="effect1_dropShadow_1505_1517"/>
<feBlend mode="normal" in="SourceGraphic" in2="effect1_dropShadow_1505_1517" result="shape"/>
</filter>
<filter id="filter1_d_1505_1517" x="170" y="50" width="108" height="108" filterUnits="userSpaceOnUse" color-interpolation-filters="sRGB">
<feFlood flood-opacity="0" result="BackgroundImageFix"/>
<feColorMatrix in="SourceAlpha" type="matrix" values="0 0 0 0 0 0 0 0 0 0 0 0 0 0 0 0 0 0 127 0" result="hardAlpha"/>
<feOffset dx="4" dy="4"/>
<feGaussianBlur stdDeviation="7"/>
<feColorMatrix type="matrix" values="0 0 0 0 0 0 0 0 0 0 0 0 0 0 0 0 0 0 0.09 0"/>
<feBlend mode="normal" in2="BackgroundImageFix" result="effect1_dropShadow_1505_1517"/>
<feBlend mode="normal" in="SourceGraphic" in2="effect1_dropShadow_1505_1517" result="shape"/>
</filter>
<filter id="filter2_d_1505_1517" x="130" y="50" width="108" height="108" filterUnits="userSpaceOnUse" color-interpolation-filters="sRGB">
<feFlood flood-opacity="0" result="BackgroundImageFix"/>
<feColorMatrix in="SourceAlpha" type="matrix" values="0 0 0 0 0 0 0 0 0 0 0 0 0 0 0 0 0 0 127 0" result="hardAlpha"/>
<feOffset dx="4" dy="4"/>
<feGaussianBlur stdDeviation="7"/>
<feColorMatrix type="matrix" values="0 0 0 0 0 0 0 0 0 0 0 0 0 0 0 0 0 0 0.09 0"/>
<feBlend mode="normal" in2="BackgroundImageFix" result="effect1_dropShadow_1505_1517"/>
<feBlend mode="normal" in="SourceGraphic" in2="effect1_dropShadow_1505_1517" result="shape"/>
</filter>
<filter id="filter3_d_1505_1517" x="90" y="50" width="108" height="108" filterUnits="userSpaceOnUse" color-interpolation-filters="sRGB">
<feFlood flood-opacity="0" result="BackgroundImageFix"/>
<feColorMatrix in="SourceAlpha" type="matrix" values="0 0 0 0 0 0 0 0 0 0 0 0 0 0 0 0 0 0 127 0" result="hardAlpha"/>
<feOffset dx="4" dy="4"/>
<feGaussianBlur stdDeviation="7"/>
<feColorMatrix type="matrix" values="0 0 0 0 0 0 0 0 0 0 0 0 0 0 0 0 0 0 0.09 0"/>
<feBlend mode="normal" in2="BackgroundImageFix" result="effect1_dropShadow_1505_1517"/>
<feBlend mode="normal" in="SourceGraphic" in2="effect1_dropShadow_1505_1517" result="shape"/>
</filter>
<filter id="filter4_d_1505_1517" x="50" y="50" width="108" height="108" filterUnits="userSpaceOnUse" color-interpolation-filters="sRGB">
<feFlood flood-opacity="0" result="BackgroundImageFix"/>
<feColorMatrix in="SourceAlpha" type="matrix" values="0 0 0 0 0 0 0 0 0 0 0 0 0 0 0 0 0 0 127 0" result="hardAlpha"/>
<feOffset dx="4" dy="4"/>
<feGaussianBlur stdDeviation="7"/>
<feColorMatrix type="matrix" values="0 0 0 0 0 0 0 0 0 0 0 0 0 0 0 0 0 0 0.09 0"/>
<feBlend mode="normal" in2="BackgroundImageFix" result="effect1_dropShadow_1505_1517"/>
<feBlend mode="normal" in="SourceGraphic" in2="effect1_dropShadow_1505_1517" result="shape"/>
</filter>
<linearGradient id="paint0_linear_1505_1517" x1="198.655" y1="79.2408" x2="198.655" y2="121.831" gradientUnits="userSpaceOnUse">
<stop stop-color="#00C6FF"/>
<stop offset="1" stop-color="#0068FF"/>
</linearGradient>
<linearGradient id="paint1_linear_1505_1517" x1="90.0047" y1="63.336" x2="70.0047" y2="110" gradientUnits="userSpaceOnUse">
<stop stop-color="#37AEE2"/>
<stop offset="1" stop-color="#1E96C8"/>
</linearGradient>
</defs>
</svg>
