<svg width="380" height="300" viewBox="0 0 380 300" fill="none" xmlns="http://www.w3.org/2000/svg">
<g filter="url(#filter0_d_1505_1518)">
<rect x="30" y="30" width="260" height="180" rx="16" fill="#FFFBFB"/>
</g>
<g filter="url(#filter1_d_1505_1518)">
<path d="M180 100C180 77.9086 197.909 60 220 60C242.091 60 260 77.9086 260 100C260 122.091 242.091 140 220 140C197.909 140 180 122.091 180 100Z" fill="#F7F7F7"/>
<mask id="mask0_1505_1518" style="mask-type:luminance" maskUnits="userSpaceOnUse" x="180" y="60" width="80" height="80">
<path fill-rule="evenodd" clip-rule="evenodd" d="M180 100C180 77.9086 197.909 60 220 60C242.091 60 260 77.9086 260 100C260 122.091 242.091 140 220 140C197.909 140 180 122.091 180 100Z" fill="white"/>
</mask>
<g mask="url(#mask0_1505_1518)">
<path fill-rule="evenodd" clip-rule="evenodd" d="M219.999 78.6667C214.208 78.6668 213.481 78.6921 211.205 78.7956C208.934 78.8996 207.384 79.2592 206.028 79.7868C204.624 80.3317 203.434 81.0606 202.248 82.2468C201.062 83.4326 200.333 84.6228 199.786 86.0255C199.257 87.3824 198.897 88.9331 198.795 91.2033C198.693 93.4789 198.667 94.2065 198.667 100C198.667 105.794 198.692 106.519 198.796 108.795C198.9 111.066 199.26 112.616 199.787 113.972C200.332 115.376 201.061 116.566 202.247 117.752C203.432 118.938 204.623 119.669 206.025 120.214C207.382 120.741 208.933 121.101 211.204 121.205C213.479 121.309 214.206 121.334 219.999 121.334C225.794 121.334 226.518 121.309 228.794 121.205C231.065 121.101 232.617 120.741 233.975 120.214C235.377 119.669 236.566 118.938 237.751 117.752C238.938 116.566 239.667 115.376 240.213 113.973C240.738 112.616 241.098 111.065 241.204 108.795C241.307 106.519 241.333 105.794 241.333 100C241.333 94.2065 241.307 93.4793 241.204 91.2038C241.098 88.9326 240.738 87.3824 240.213 86.0259C239.667 84.6228 238.938 83.4326 237.751 82.2468C236.564 81.0601 235.378 80.3312 233.973 79.7868C232.613 79.2592 231.062 78.8996 228.791 78.7956C226.516 78.6921 225.791 78.6668 219.999 78.6667ZM218.088 82.5112C218.46 82.5107 218.86 82.5108 219.291 82.511L220.002 82.5112C225.698 82.5112 226.373 82.5317 228.623 82.6339C230.703 82.729 231.831 83.0766 232.583 83.3686C233.579 83.7552 234.289 84.2175 235.035 84.9641C235.782 85.7108 236.244 86.4219 236.632 87.4175C236.924 88.1686 237.272 89.2975 237.366 91.3776C237.468 93.6265 237.491 94.302 237.491 99.9954C237.491 105.689 237.468 106.364 237.366 108.613C237.271 110.693 236.924 111.822 236.632 112.573C236.245 113.569 235.782 114.278 235.035 115.024C234.288 115.771 233.579 116.233 232.583 116.62C231.832 116.913 230.703 117.26 228.623 117.355C226.374 117.457 225.698 117.479 220.002 117.479C214.306 117.479 213.63 117.457 211.381 117.355C209.301 117.259 208.173 116.911 207.42 116.619C206.425 116.232 205.713 115.77 204.967 115.024C204.22 114.277 203.758 113.568 203.37 112.572C203.078 111.82 202.73 110.692 202.636 108.612C202.533 106.363 202.513 105.687 202.513 99.9901C202.513 94.2931 202.533 93.6211 202.636 91.3722C202.731 89.2922 203.078 88.1633 203.37 87.4113C203.757 86.4157 204.22 85.7046 204.967 84.9579C205.713 84.2113 206.425 83.749 207.42 83.3615C208.172 83.0681 209.301 82.7215 211.381 82.6259C213.35 82.537 214.112 82.5103 218.088 82.5059V82.5112ZM228.83 88.6127C228.83 87.1989 229.976 86.0536 231.39 86.0536V86.0527C232.803 86.0527 233.95 87.1993 233.95 88.6127C233.95 90.026 232.803 91.1727 231.39 91.1727C229.976 91.1727 228.83 90.026 228.83 88.6127ZM220.002 89.0446C213.951 89.0449 209.046 93.9502 209.046 100C209.046 106.051 213.952 110.954 220.002 110.954C226.052 110.954 230.956 106.051 230.956 100C230.956 93.95 226.052 89.0446 220.002 89.0446ZM227.113 100C227.113 96.0727 223.929 92.8891 220.002 92.8891C216.074 92.8891 212.891 96.0727 212.891 100C212.891 103.927 216.074 107.112 220.002 107.112C223.929 107.112 227.113 103.927 227.113 100Z" fill="black"/>
</g>
</g>
<g filter="url(#filter2_d_1505_1518)">
<path d="M140 100C140 77.9086 157.909 60 180 60C202.091 60 220 77.9086 220 100C220 122.091 202.091 140 180 140C157.909 140 140 122.091 140 100Z" fill="#55ACEE"/>
<path d="M178.802 92.5125L178.886 93.8966L177.487 93.7271C172.395 93.0774 167.946 90.8742 164.169 87.1739L162.322 85.3378L161.847 86.6937C160.839 89.7161 161.483 92.908 163.581 95.0547C164.701 96.2411 164.449 96.4106 162.518 95.7044C161.847 95.4784 161.259 95.3089 161.203 95.3937C161.007 95.5914 161.679 98.1618 162.21 99.1787C162.938 100.591 164.421 101.975 166.044 102.794L167.415 103.444L165.792 103.472C164.225 103.472 164.169 103.5 164.337 104.094C164.896 105.93 167.107 107.879 169.569 108.726L171.304 109.319L169.793 110.223C167.554 111.523 164.924 112.257 162.294 112.313C161.035 112.342 160 112.455 160 112.539C160 112.822 163.414 114.404 165.4 115.025C171.36 116.861 178.438 116.07 183.754 112.935C187.532 110.703 191.309 106.269 193.071 101.975C194.023 99.6872 194.974 95.5067 194.974 93.5011C194.974 92.2018 195.058 92.0323 196.625 90.4787C197.548 89.5748 198.415 88.5862 198.583 88.3037C198.863 87.767 198.835 87.767 197.408 88.2472C195.03 89.0946 194.694 88.9817 195.869 87.7106C196.737 86.8067 197.772 85.1683 197.772 84.6882C197.772 84.6034 197.352 84.7446 196.877 84.9989C196.373 85.2813 195.254 85.705 194.414 85.9593L192.904 86.4395L191.533 85.5073C190.777 84.9989 189.714 84.4339 189.154 84.2645C187.727 83.869 185.545 83.9255 184.258 84.3774C180.761 85.6485 178.55 88.9252 178.802 92.5125Z" fill="white"/>
</g>
<g filter="url(#filter3_d_1505_1518)">
<path d="M180 100C180 77.9063 162.094 60 140 60C117.906 60 100 77.9063 100 100C100 119.969 114.625 136.516 133.75 139.516V111.563H123.594V100H133.75V91.1875C133.75 81.164 139.719 75.625 148.859 75.625C153.234 75.625 157.812 76.4062 157.812 76.4062V86.25H152.766C147.797 86.25 146.25 89.336 146.25 92.5V100H157.344L155.57 111.563H146.25V139.516C165.375 136.516 180 119.969 180 100Z" fill="#1877F2"/>
<path d="M155.57 111.562L157.344 100H146.25V92.5C146.25 89.336 147.797 86.25 152.766 86.25H157.812V76.4062C157.812 76.4062 153.234 75.625 148.859 75.625C139.719 75.625 133.75 81.164 133.75 91.1875V100H123.594V111.562H133.75V139.516C135.789 139.836 137.875 140 140 140C142.125 140 144.211 139.836 146.25 139.516V111.562H155.57Z" fill="white"/>
</g>
<g filter="url(#filter4_d_1505_1518)">
<path d="M60 100C60 77.9086 77.9086 60 100 60C122.091 60 140 77.9086 140 100C140 122.091 122.091 140 100 140C77.9086 140 60 122.091 60 100Z" fill="#0077B5"/>
<path fill-rule="evenodd" clip-rule="evenodd" d="M88.8646 84.7045C88.8646 87.3197 86.8961 89.4122 83.7353 89.4122H83.6773C80.6341 89.4122 78.6666 87.3197 78.6666 84.7045C78.6666 82.034 80.694 80 83.795 80C86.8961 80 88.8057 82.034 88.8646 84.7045ZM88.2675 93.1297V120.366H79.2026V93.1297H88.2675ZM120.959 120.366L120.959 104.75C120.959 96.3838 116.487 92.4902 110.522 92.4902C105.709 92.4902 103.554 95.1338 102.351 96.9883V93.1305H93.2852C93.4046 95.6862 93.2852 120.367 93.2852 120.367H102.351V105.156C102.351 104.342 102.41 103.53 102.65 102.947C103.305 101.321 104.796 99.6371 107.301 99.6371C110.582 99.6371 111.894 102.135 111.894 105.795V120.366H120.959Z" fill="white"/>
</g>
<path d="M66.2139 177.437C66.2139 176.999 66.0589 176.662 65.749 176.425C65.4437 176.188 64.89 175.949 64.0879 175.707C63.2858 175.465 62.6478 175.197 62.1738 174.9C61.2669 174.331 60.8135 173.588 60.8135 172.672C60.8135 171.87 61.1393 171.209 61.791 170.689C62.4473 170.17 63.2972 169.91 64.3408 169.91C65.0335 169.91 65.651 170.038 66.1934 170.293C66.7357 170.548 67.1618 170.913 67.4717 171.387C67.7816 171.856 67.9365 172.378 67.9365 172.952H66.2139C66.2139 172.433 66.0498 172.027 65.7217 171.735C65.3981 171.439 64.9333 171.291 64.3271 171.291C63.762 171.291 63.3223 171.412 63.0078 171.653C62.6979 171.895 62.543 172.232 62.543 172.665C62.543 173.03 62.7116 173.335 63.0488 173.581C63.3861 173.823 63.9421 174.06 64.7168 174.292C65.4915 174.52 66.1136 174.782 66.583 175.078C67.0524 175.37 67.3965 175.707 67.6152 176.09C67.834 176.468 67.9434 176.912 67.9434 177.423C67.9434 178.252 67.6243 178.913 66.9863 179.405C66.3529 179.893 65.4915 180.137 64.4023 180.137C63.6823 180.137 63.0192 180.005 62.4131 179.74C61.8115 179.471 61.3421 179.102 61.0049 178.633C60.6722 178.163 60.5059 177.617 60.5059 176.992H62.2354C62.2354 177.557 62.4222 177.995 62.7959 178.305C63.1696 178.615 63.7051 178.77 64.4023 178.77C65.0039 178.77 65.4551 178.649 65.7559 178.407C66.0612 178.161 66.2139 177.838 66.2139 177.437ZM68.6893 176.233C68.6893 175.509 68.8328 174.857 69.1199 174.278C69.407 173.695 69.8104 173.248 70.3299 172.938C70.8494 172.624 71.4464 172.467 72.1209 172.467C73.1189 172.467 73.9279 172.788 74.5477 173.431C75.172 174.073 75.5092 174.925 75.5594 175.987L75.5662 176.377C75.5662 177.106 75.4249 177.758 75.1424 178.332C74.8644 178.906 74.4633 179.351 73.9393 179.665C73.4197 179.979 72.8182 180.137 72.1346 180.137C71.091 180.137 70.2547 179.79 69.6258 179.098C69.0014 178.4 68.6893 177.473 68.6893 176.315V176.233ZM70.3504 176.377C70.3504 177.138 70.5076 177.735 70.8221 178.168C71.1365 178.596 71.574 178.811 72.1346 178.811C72.6951 178.811 73.1303 178.592 73.4402 178.154C73.7547 177.717 73.9119 177.076 73.9119 176.233C73.9119 175.486 73.7501 174.894 73.4266 174.456C73.1076 174.019 72.6723 173.8 72.1209 173.8C71.5786 173.8 71.1479 174.016 70.8289 174.449C70.5099 174.878 70.3504 175.52 70.3504 176.377ZM79.7096 178.811C80.1243 178.811 80.4684 178.69 80.7418 178.448C81.0152 178.207 81.1611 177.908 81.1793 177.553H82.7447C82.7265 178.013 82.5829 178.444 82.3141 178.845C82.0452 179.241 81.6806 179.556 81.2203 179.788C80.76 180.021 80.2633 180.137 79.7301 180.137C78.6956 180.137 77.8753 179.802 77.2691 179.132C76.663 178.462 76.36 177.537 76.36 176.356V176.186C76.36 175.06 76.6607 174.16 77.2623 173.485C77.8639 172.806 78.6842 172.467 79.7232 172.467C80.6028 172.467 81.3183 172.724 81.8697 173.239C82.4257 173.75 82.7174 174.422 82.7447 175.256H81.1793C81.1611 174.832 81.0152 174.483 80.7418 174.21C80.4729 173.937 80.1288 173.8 79.7096 173.8C79.1718 173.8 78.7571 173.996 78.4654 174.388C78.1738 174.775 78.0257 175.365 78.0211 176.158V176.425C78.0211 177.227 78.1646 177.826 78.4518 178.223C78.7434 178.615 79.1627 178.811 79.7096 178.811ZM85.4662 180H83.8051V172.604H85.4662V180ZM83.7025 170.683C83.7025 170.427 83.7823 170.215 83.9418 170.047C84.1059 169.878 84.3383 169.794 84.6391 169.794C84.9398 169.794 85.1723 169.878 85.3363 170.047C85.5004 170.215 85.5824 170.427 85.5824 170.683C85.5824 170.933 85.5004 171.143 85.3363 171.312C85.1723 171.476 84.9398 171.558 84.6391 171.558C84.3383 171.558 84.1059 171.476 83.9418 171.312C83.7823 171.143 83.7025 170.933 83.7025 170.683ZM91.4006 180C91.3277 179.859 91.2639 179.629 91.2092 179.31C90.6805 179.861 90.0334 180.137 89.2678 180.137C88.5249 180.137 87.9188 179.925 87.4494 179.501C86.98 179.077 86.7453 178.553 86.7453 177.929C86.7453 177.14 87.037 176.536 87.6203 176.117C88.2082 175.693 89.0467 175.481 90.1359 175.481H91.1545V174.996C91.1545 174.613 91.0474 174.308 90.8332 174.08C90.619 173.848 90.2932 173.731 89.8557 173.731C89.4774 173.731 89.1675 173.827 88.926 174.019C88.6844 174.205 88.5637 174.445 88.5637 174.736H86.9025C86.9025 174.331 87.037 173.952 87.3059 173.602C87.5747 173.246 87.9393 172.968 88.3996 172.768C88.8645 172.567 89.3817 172.467 89.9514 172.467C90.8173 172.467 91.5077 172.686 92.0227 173.123C92.5376 173.556 92.802 174.167 92.8156 174.955V178.291C92.8156 178.956 92.909 179.487 93.0959 179.884V180H91.4006ZM89.5754 178.804C89.9035 178.804 90.2111 178.724 90.4982 178.564C90.7899 178.405 91.0087 178.191 91.1545 177.922V176.527H90.259C89.6437 176.527 89.1812 176.634 88.8713 176.849C88.5614 177.063 88.4064 177.366 88.4064 177.758C88.4064 178.077 88.5113 178.332 88.7209 178.523C88.9351 178.71 89.2199 178.804 89.5754 178.804ZM96.0225 180H94.3613V169.5H96.0225V180ZM103.127 170.047L105.998 177.676L108.862 170.047H111.097V180H109.375V176.719L109.546 172.33L106.606 180H105.369L102.436 172.337L102.607 176.719V180H100.884V170.047H103.127ZM115.945 180.137C114.892 180.137 114.037 179.806 113.381 179.146C112.73 178.48 112.404 177.596 112.404 176.493V176.288C112.404 175.55 112.545 174.891 112.828 174.312C113.115 173.729 113.516 173.276 114.031 172.952C114.546 172.629 115.12 172.467 115.753 172.467C116.76 172.467 117.537 172.788 118.084 173.431C118.636 174.073 118.912 174.982 118.912 176.158V176.828H114.079C114.129 177.439 114.331 177.922 114.687 178.277C115.047 178.633 115.498 178.811 116.04 178.811C116.801 178.811 117.421 178.503 117.9 177.888L118.795 178.742C118.499 179.184 118.103 179.528 117.606 179.774C117.114 180.016 116.56 180.137 115.945 180.137ZM115.746 173.8C115.291 173.8 114.922 173.959 114.639 174.278C114.361 174.597 114.183 175.042 114.106 175.611H117.271V175.488C117.234 174.932 117.086 174.513 116.827 174.23C116.567 173.943 116.207 173.8 115.746 173.8ZM119.596 176.247C119.596 175.108 119.86 174.194 120.389 173.506C120.918 172.813 121.626 172.467 122.515 172.467C123.299 172.467 123.932 172.74 124.415 173.287V169.5H126.076V180H124.572L124.49 179.234C123.994 179.836 123.331 180.137 122.501 180.137C121.635 180.137 120.933 179.788 120.396 179.091C119.862 178.394 119.596 177.446 119.596 176.247ZM121.257 176.391C121.257 177.143 121.401 177.73 121.688 178.154C121.979 178.574 122.392 178.783 122.925 178.783C123.604 178.783 124.101 178.48 124.415 177.874V174.716C124.11 174.123 123.618 173.827 122.939 173.827C122.401 173.827 121.986 174.041 121.695 174.47C121.403 174.894 121.257 175.534 121.257 176.391ZM129.276 180H127.615V172.604H129.276V180ZM127.513 170.683C127.513 170.427 127.592 170.215 127.752 170.047C127.916 169.878 128.148 169.794 128.449 169.794C128.75 169.794 128.982 169.878 129.146 170.047C129.311 170.215 129.393 170.427 129.393 170.683C129.393 170.933 129.311 171.143 129.146 171.312C128.982 171.476 128.75 171.558 128.449 171.558C128.148 171.558 127.916 171.476 127.752 171.312C127.592 171.143 127.513 170.933 127.513 170.683ZM135.211 180C135.138 179.859 135.074 179.629 135.019 179.31C134.491 179.861 133.844 180.137 133.078 180.137C132.335 180.137 131.729 179.925 131.26 179.501C130.79 179.077 130.555 178.553 130.555 177.929C130.555 177.14 130.847 176.536 131.43 176.117C132.018 175.693 132.857 175.481 133.946 175.481H134.965V174.996C134.965 174.613 134.858 174.308 134.643 174.08C134.429 173.848 134.103 173.731 133.666 173.731C133.288 173.731 132.978 173.827 132.736 174.019C132.495 174.205 132.374 174.445 132.374 174.736H130.713C130.713 174.331 130.847 173.952 131.116 173.602C131.385 173.246 131.749 172.968 132.21 172.768C132.675 172.567 133.192 172.467 133.762 172.467C134.627 172.467 135.318 172.686 135.833 173.123C136.348 173.556 136.612 174.167 136.626 174.955V178.291C136.626 178.956 136.719 179.487 136.906 179.884V180H135.211ZM133.386 178.804C133.714 178.804 134.021 178.724 134.308 178.564C134.6 178.405 134.819 178.191 134.965 177.922V176.527H134.069C133.454 176.527 132.991 176.634 132.681 176.849C132.372 177.063 132.217 177.366 132.217 177.758C132.217 178.077 132.321 178.332 132.531 178.523C132.745 178.71 133.03 178.804 133.386 178.804ZM143.142 176.302V180H141.412V170.047H145.22C146.332 170.047 147.214 170.336 147.866 170.915C148.522 171.494 148.85 172.259 148.85 173.212C148.85 174.187 148.529 174.946 147.886 175.488C147.248 176.031 146.353 176.302 145.2 176.302H143.142ZM143.142 174.914H145.22C145.835 174.914 146.305 174.771 146.628 174.483C146.952 174.192 147.114 173.772 147.114 173.226C147.114 172.688 146.95 172.259 146.621 171.94C146.293 171.617 145.842 171.451 145.268 171.441H143.142V174.914ZM151.674 180H150.013V169.5H151.674V180ZM157.608 180C157.535 179.859 157.472 179.629 157.417 179.31C156.888 179.861 156.241 180.137 155.476 180.137C154.733 180.137 154.127 179.925 153.657 179.501C153.188 179.077 152.953 178.553 152.953 177.929C152.953 177.14 153.245 176.536 153.828 176.117C154.416 175.693 155.255 175.481 156.344 175.481H157.362V174.996C157.362 174.613 157.255 174.308 157.041 174.08C156.827 173.848 156.501 173.731 156.063 173.731C155.685 173.731 155.375 173.827 155.134 174.019C154.892 174.205 154.771 174.445 154.771 174.736H153.11C153.11 174.331 153.245 173.952 153.514 173.602C153.783 173.246 154.147 172.968 154.607 172.768C155.072 172.567 155.59 172.467 156.159 172.467C157.025 172.467 157.715 172.686 158.23 173.123C158.745 173.556 159.01 174.167 159.023 174.955V178.291C159.023 178.956 159.117 179.487 159.304 179.884V180H157.608ZM155.783 178.804C156.111 178.804 156.419 178.724 156.706 178.564C156.998 178.405 157.216 178.191 157.362 177.922V176.527H156.467C155.852 176.527 155.389 176.634 155.079 176.849C154.769 177.063 154.614 177.366 154.614 177.758C154.614 178.077 154.719 178.332 154.929 178.523C155.143 178.71 155.428 178.804 155.783 178.804ZM162.545 170.806V172.604H163.85V173.834H162.545V177.963C162.545 178.245 162.599 178.451 162.709 178.578C162.823 178.701 163.023 178.763 163.31 178.763C163.502 178.763 163.695 178.74 163.891 178.694V179.979C163.513 180.084 163.149 180.137 162.798 180.137C161.522 180.137 160.884 179.433 160.884 178.024V173.834H159.667V172.604H160.884V170.806H162.545ZM165.41 180V173.834H164.282V172.604H165.41V171.927C165.41 171.106 165.638 170.473 166.093 170.026C166.549 169.58 167.187 169.356 168.007 169.356C168.299 169.356 168.609 169.397 168.937 169.479L168.896 170.778C168.714 170.742 168.502 170.724 168.26 170.724C167.467 170.724 167.071 171.132 167.071 171.947V172.604H168.575V173.834H167.071V180H165.41ZM169.177 176.233C169.177 175.509 169.321 174.857 169.608 174.278C169.895 173.695 170.298 173.248 170.818 172.938C171.337 172.624 171.934 172.467 172.609 172.467C173.607 172.467 174.416 172.788 175.036 173.431C175.66 174.073 175.997 174.925 176.047 175.987L176.054 176.377C176.054 177.106 175.913 177.758 175.63 178.332C175.352 178.906 174.951 179.351 174.427 179.665C173.908 179.979 173.306 180.137 172.622 180.137C171.579 180.137 170.743 179.79 170.114 179.098C169.489 178.4 169.177 177.473 169.177 176.315V176.233ZM170.838 176.377C170.838 177.138 170.996 177.735 171.31 178.168C171.624 178.596 172.062 178.811 172.622 178.811C173.183 178.811 173.618 178.592 173.928 178.154C174.243 177.717 174.4 177.076 174.4 176.233C174.4 175.486 174.238 174.894 173.914 174.456C173.595 174.019 173.16 173.8 172.609 173.8C172.066 173.8 171.636 174.016 171.317 174.449C170.998 174.878 170.838 175.52 170.838 176.377ZM181.031 174.121C180.813 174.085 180.587 174.066 180.355 174.066C179.594 174.066 179.081 174.358 178.817 174.941V180H177.155V172.604H178.741L178.782 173.431C179.183 172.788 179.739 172.467 180.45 172.467C180.687 172.467 180.883 172.499 181.038 172.562L181.031 174.121ZM183.343 172.604L183.391 173.376C183.91 172.77 184.621 172.467 185.523 172.467C186.512 172.467 187.189 172.845 187.554 173.602C188.091 172.845 188.848 172.467 189.823 172.467C190.639 172.467 191.245 172.692 191.642 173.144C192.043 173.595 192.248 174.26 192.257 175.14V180H190.596V175.188C190.596 174.718 190.493 174.374 190.288 174.155C190.083 173.937 189.743 173.827 189.27 173.827C188.891 173.827 188.581 173.93 188.34 174.135C188.103 174.335 187.937 174.6 187.841 174.928L187.848 180H186.187V175.133C186.164 174.262 185.719 173.827 184.854 173.827C184.188 173.827 183.716 174.098 183.438 174.641V180H181.777V172.604H183.343Z" fill="#888888"/>
<defs>
<filter id="filter0_d_1505_1518" x="0" y="0" width="380" height="300" filterUnits="userSpaceOnUse" color-interpolation-filters="sRGB">
<feFlood flood-opacity="0" result="BackgroundImageFix"/>
<feColorMatrix in="SourceAlpha" type="matrix" values="0 0 0 0 0 0 0 0 0 0 0 0 0 0 0 0 0 0 127 0" result="hardAlpha"/>
<feOffset dx="30" dy="30"/>
<feGaussianBlur stdDeviation="30"/>
<feColorMatrix type="matrix" values="0 0 0 0 0.333333 0 0 0 0 0.333333 0 0 0 0 0.333333 0 0 0 0.1 0"/>
<feBlend mode="normal" in2="BackgroundImageFix" result="effect1_dropShadow_1505_1518"/>
<feBlend mode="normal" in="SourceGraphic" in2="effect1_dropShadow_1505_1518" result="shape"/>
</filter>
<filter id="filter1_d_1505_1518" x="170" y="50" width="112" height="112" filterUnits="userSpaceOnUse" color-interpolation-filters="sRGB">
<feFlood flood-opacity="0" result="BackgroundImageFix"/>
<feColorMatrix in="SourceAlpha" type="matrix" values="0 0 0 0 0 0 0 0 0 0 0 0 0 0 0 0 0 0 127 0" result="hardAlpha"/>
<feOffset dx="6" dy="6"/>
<feGaussianBlur stdDeviation="8"/>
<feColorMatrix type="matrix" values="0 0 0 0 0 0 0 0 0 0 0 0 0 0 0 0 0 0 0.11 0"/>
<feBlend mode="normal" in2="BackgroundImageFix" result="effect1_dropShadow_1505_1518"/>
<feBlend mode="normal" in="SourceGraphic" in2="effect1_dropShadow_1505_1518" result="shape"/>
</filter>
<filter id="filter2_d_1505_1518" x="130" y="50" width="112" height="112" filterUnits="userSpaceOnUse" color-interpolation-filters="sRGB">
<feFlood flood-opacity="0" result="BackgroundImageFix"/>
<feColorMatrix in="SourceAlpha" type="matrix" values="0 0 0 0 0 0 0 0 0 0 0 0 0 0 0 0 0 0 127 0" result="hardAlpha"/>
<feOffset dx="6" dy="6"/>
<feGaussianBlur stdDeviation="8"/>
<feColorMatrix type="matrix" values="0 0 0 0 0 0 0 0 0 0 0 0 0 0 0 0 0 0 0.11 0"/>
<feBlend mode="normal" in2="BackgroundImageFix" result="effect1_dropShadow_1505_1518"/>
<feBlend mode="normal" in="SourceGraphic" in2="effect1_dropShadow_1505_1518" result="shape"/>
</filter>
<filter id="filter3_d_1505_1518" x="90" y="50" width="112" height="112" filterUnits="userSpaceOnUse" color-interpolation-filters="sRGB">
<feFlood flood-opacity="0" result="BackgroundImageFix"/>
<feColorMatrix in="SourceAlpha" type="matrix" values="0 0 0 0 0 0 0 0 0 0 0 0 0 0 0 0 0 0 127 0" result="hardAlpha"/>
<feOffset dx="6" dy="6"/>
<feGaussianBlur stdDeviation="8"/>
<feColorMatrix type="matrix" values="0 0 0 0 0 0 0 0 0 0 0 0 0 0 0 0 0 0 0.11 0"/>
<feBlend mode="normal" in2="BackgroundImageFix" result="effect1_dropShadow_1505_1518"/>
<feBlend mode="normal" in="SourceGraphic" in2="effect1_dropShadow_1505_1518" result="shape"/>
</filter>
<filter id="filter4_d_1505_1518" x="50" y="50" width="112" height="112" filterUnits="userSpaceOnUse" color-interpolation-filters="sRGB">
<feFlood flood-opacity="0" result="BackgroundImageFix"/>
<feColorMatrix in="SourceAlpha" type="matrix" values="0 0 0 0 0 0 0 0 0 0 0 0 0 0 0 0 0 0 127 0" result="hardAlpha"/>
<feOffset dx="6" dy="6"/>
<feGaussianBlur stdDeviation="8"/>
<feColorMatrix type="matrix" values="0 0 0 0 0 0 0 0 0 0 0 0 0 0 0 0 0 0 0.11 0"/>
<feBlend mode="normal" in2="BackgroundImageFix" result="effect1_dropShadow_1505_1518"/>
<feBlend mode="normal" in="SourceGraphic" in2="effect1_dropShadow_1505_1518" result="shape"/>
</filter>
</defs>
</svg>
