<svg width="108" height="32" viewBox="0 0 108 32" fill="none" xmlns="http://www.w3.org/2000/svg">
<g opacity="0.3">
<circle cx="105" cy="29" r="3" transform="rotate(-180 105 29)" fill="#EE9591"/>
<circle cx="105" cy="16" r="3" transform="rotate(-180 105 16)" fill="#EE9591"/>
<circle cx="105" cy="3" r="3" transform="rotate(-180 105 3)" fill="#EE9591"/>
<circle cx="93" cy="29" r="3" transform="rotate(-180 93 29)" fill="#EE9591"/>
<circle cx="93" cy="16" r="3" transform="rotate(-180 93 16)" fill="#EE9591"/>
<circle cx="93" cy="3" r="3" transform="rotate(-180 93 3)" fill="#EE9591"/>
<circle cx="80" cy="29" r="3" transform="rotate(-180 80 29)" fill="#EE9591"/>
<circle cx="80" cy="16" r="3" transform="rotate(-180 80 16)" fill="#EE9591"/>
<circle cx="80" cy="3" r="3" transform="rotate(-180 80 3)" fill="#EE9591"/>
<circle cx="67" cy="29" r="3" transform="rotate(-180 67 29)" fill="#EE9591"/>
<circle cx="67" cy="16" r="3" transform="rotate(-180 67 16)" fill="#EE9591"/>
<circle cx="67" cy="3" r="3" transform="rotate(-180 67 3)" fill="#EE9591"/>
<circle cx="54" cy="29" r="3" transform="rotate(-180 54 29)" fill="#EE9591"/>
<circle cx="54" cy="16" r="3" transform="rotate(-180 54 16)" fill="#EE9591"/>
<circle cx="54" cy="3" r="3" transform="rotate(-180 54 3)" fill="#EE9591"/>
<circle cx="41" cy="29" r="3" transform="rotate(-180 41 29)" fill="#EE9591"/>
<circle cx="41" cy="16" r="3" transform="rotate(-180 41 16)" fill="#EE9591"/>
<circle cx="41" cy="3" r="3" transform="rotate(-180 41 3)" fill="#EE9591"/>
<circle cx="28" cy="29" r="3" transform="rotate(-180 28 29)" fill="#EE9591"/>
<circle cx="28" cy="16" r="3" transform="rotate(-180 28 16)" fill="#EE9591"/>
<circle cx="28" cy="3" r="3" transform="rotate(-180 28 3)" fill="#EE9591"/>
<circle cx="15" cy="29" r="3" transform="rotate(-180 15 29)" fill="#EE9591"/>
<circle cx="15" cy="16" r="3" transform="rotate(-180 15 16)" fill="#EE9591"/>
<circle cx="15" cy="3" r="3" transform="rotate(-180 15 3)" fill="#EE9591"/>
<circle cx="3" cy="29" r="3" transform="rotate(-180 3 29)" fill="#EE9591"/>
<circle cx="3" cy="16" r="3" transform="rotate(-180 3 16)" fill="#EE9591"/>
<circle cx="3" cy="3" r="3" transform="rotate(-180 3 3)" fill="#EE9591"/>
</g>
</svg>
